<svg width="51" height="67" viewBox="0 0 51 67" fill="none" xmlns="http://www.w3.org/2000/svg">
<g filter="url(#filter0_d_394_614)">
<path d="M23.5738 1.07652C14.9543 1.66089 7.67615 6.48198 4.10349 13.9726C2.78865 16.7351 2.12459 19.4445 2.01834 22.5789C1.87224 26.5765 2.58943 29.8171 4.51521 33.8414C6.14881 37.2679 8.30037 40.907 11.6472 45.914C15.4457 51.5984 23.4144 62.6484 23.959 62.9804C24.198 63.1265 24.6097 63.2195 24.9816 63.2195C25.4863 63.2195 25.6988 63.1531 26.0043 62.8609C26.3894 62.489 32.8972 53.564 36.191 48.8757C42.1144 40.4554 45.8199 34.0671 47.1347 30.0429C47.998 27.4132 48.2371 25.6601 48.1574 22.6453C48.1043 20.7992 48.0113 19.7898 47.8121 18.8867C45.8597 10.0812 38.8207 3.25464 29.8691 1.47495C28.5676 1.22261 27.7308 1.11636 25.8847 1.01011C25.4863 0.983548 24.4504 1.01011 23.5738 1.07652ZM28.5277 6.70777C33.216 7.63745 37.5058 10.4929 40.109 14.371C41.5433 16.5359 42.3668 18.4882 42.898 21.025C43.2699 22.7781 43.3097 25.9125 42.9777 27.7054C41.6762 34.864 36.2707 40.575 29.2715 42.2085C26.6551 42.8195 23.9457 42.8726 21.4222 42.3679C17.9027 41.6507 14.9012 40.0171 12.2715 37.3875C8.87146 34.0007 7.13162 30.0296 6.94568 25.2351C6.78631 21.3437 7.75584 17.8507 9.86756 14.5968C10.9699 12.9101 13.3605 10.4796 14.9277 9.4437C16.9996 8.08902 19.709 6.99995 21.9004 6.64136C22.4449 6.56167 22.9894 6.4687 23.0957 6.44214C23.5605 6.32261 27.6246 6.52183 28.5277 6.70777Z" fill="#F15E32"/>
<path d="M26.0043 62.8609L25.8306 62.681L25.8306 62.6811C25.8306 62.6811 25.8315 62.6802 25.8333 62.6783L25.8412 62.6697C25.848 62.6622 25.8567 62.6523 25.8674 62.6396C25.889 62.6142 25.9168 62.5803 25.9508 62.5378C26.0188 62.4529 26.1088 62.3373 26.219 62.1935C26.4392 61.906 26.7371 61.5097 27.0947 61.0289C27.8097 60.0676 28.7617 58.7713 29.8049 57.3397C31.8913 54.4765 34.3407 51.0745 35.9864 48.732L35.9865 48.7319C41.9101 40.3113 45.5951 33.9502 46.8971 29.9653L46.8972 29.9649C47.7507 27.3652 47.9865 25.6409 47.9075 22.6519C47.8545 20.8097 47.7619 19.8197 47.568 18.9405C45.6374 10.2337 38.6765 3.48108 29.8209 1.72026C28.5327 1.47053 27.7073 1.36542 25.8704 1.25971L25.8681 1.25956C25.488 1.23421 24.4664 1.25961 23.5927 1.32581L23.5907 1.32594C15.0567 1.90452 7.861 6.67514 4.32914 14.0802C3.02921 16.8115 2.37329 19.4871 2.2682 22.5873L2.26817 22.588C2.12372 26.5408 2.83039 29.7415 4.74072 33.7334L4.74088 33.7338C6.36718 37.145 8.51146 40.7729 11.8551 45.7751L11.8551 45.7751C13.752 48.6138 16.6918 52.7947 19.2261 56.3081C20.4931 58.0647 21.6578 59.6531 22.5393 60.8226C22.9803 61.4076 23.3492 61.8862 23.6242 62.2283C23.7619 62.3995 23.8744 62.5344 23.9597 62.6306C24.0025 62.6788 24.0365 62.7151 24.0623 62.7406C24.0831 62.7612 24.0927 62.7688 24.0934 62.7695C24.2816 62.8827 24.6406 62.9695 24.9816 62.9695C25.2272 62.9695 25.3724 62.9525 25.4863 62.9134C25.5943 62.8762 25.6935 62.8122 25.8315 62.6802L26.0043 62.8609ZM26.0043 62.8609C26.3894 62.489 32.8972 53.564 36.191 48.8757M26.0043 62.8609C25.6988 63.1531 25.4863 63.2195 24.9816 63.2195C24.6097 63.2195 24.198 63.1265 23.959 62.9804L36.191 48.8757M36.191 48.8757C42.1144 40.4554 45.8199 34.0671 47.1347 30.0429M36.191 48.8757L47.1347 30.0429M47.1347 30.0429C47.998 27.4132 48.2371 25.6601 48.1574 22.6453L47.1347 30.0429ZM23.5738 1.07652C14.9543 1.66089 7.67615 6.48198 4.10349 13.9726C2.78865 16.7351 2.12459 19.4445 2.01834 22.5789C1.87224 26.5765 2.58943 29.8171 4.51521 33.8414L23.5738 1.07652ZM23.5738 1.07652C24.4504 1.01011 25.4863 0.983547 25.8847 1.01011L23.5738 1.07652ZM28.577 6.46267C33.3291 7.40519 37.6762 10.2981 40.3165 14.2317L40.3174 14.233C41.7688 16.4236 42.6047 18.4051 43.1426 20.9731C43.5213 22.7585 43.5615 25.926 43.2235 27.7509C41.9041 35.0059 36.4255 40.7955 29.3283 42.452C26.6785 43.0707 23.933 43.125 21.3732 42.6131L21.3723 42.6129C17.8031 41.8856 14.758 40.2274 12.095 37.5646C8.65033 34.1333 6.88428 30.1025 6.69587 25.2449C6.53445 21.3015 7.51827 17.7576 9.65785 14.4607L9.65829 14.4601C10.2218 13.5978 11.1073 12.5554 12.045 11.601C12.9822 10.6471 13.9856 9.7668 14.7899 9.23515L14.7909 9.23446C16.8886 7.8629 19.6304 6.75948 21.86 6.39464L21.86 6.39461L21.8642 6.39399C22.4114 6.31391 22.9409 6.22293 23.0344 6.19977M28.577 6.46267C28.5768 6.46262 28.5766 6.46258 28.5763 6.46254L28.5277 6.70777L28.5781 6.4629C28.5777 6.46282 28.5774 6.46275 28.577 6.46267ZM28.577 6.46267C28.1018 6.3651 26.8402 6.2685 25.6596 6.2107C25.064 6.18155 24.4808 6.1619 24.0161 6.15709C23.784 6.15468 23.5793 6.15595 23.4166 6.16177C23.2638 6.16724 23.123 6.17719 23.0344 6.19977M23.0344 6.19977C23.0341 6.19985 23.0337 6.19993 23.0334 6.20002L23.0957 6.44214L23.035 6.1996C23.0348 6.19966 23.0346 6.19971 23.0344 6.19977ZM24.0891 62.767L24.0893 62.7671L24.0891 62.767Z" stroke="white" stroke-width="0.5"/>
</g>
<path d="M18.2967 13.7938L18.2968 13.7938L18.2956 13.7958C18.132 14.0904 18.0485 14.278 18.003 14.5522C17.9565 14.8329 17.9496 15.2057 17.9496 15.8722C17.9496 16.5109 17.9598 16.8886 18.0033 17.1772C18.046 17.4607 18.1213 17.6597 18.2581 17.9398C18.7989 19.0277 19.5898 19.5981 20.3748 19.664C21.1571 19.7297 21.968 19.297 22.5582 18.3047L22.5585 18.3042C23.2658 17.1297 23.3583 15.6553 22.9965 14.4347C22.634 13.2117 21.8263 12.2721 20.7587 12.1199C20.4277 12.0819 20.0887 12.121 19.8169 12.2445C19.2036 12.5256 18.7004 13.0254 18.2967 13.7938Z" fill="#F15E32" stroke="white" stroke-width="0.2"/>
<path d="M27.0869 15.4676L27.0869 15.468C27.002 16.5907 27.2701 17.6311 27.7569 18.388C28.2439 19.1451 28.943 19.6104 29.7231 19.6104C30.9066 19.6104 31.8242 18.6009 32.2271 17.2546C32.6286 15.9128 32.5019 14.2803 31.6347 13.1026C30.9121 12.1218 29.626 11.7693 28.7934 12.2913C27.7899 12.9217 27.1914 14.005 27.0869 15.4676Z" fill="#F15E32" stroke="white" stroke-width="0.2"/>
<path d="M12.3211 18.3097L12.3211 18.3097L12.3188 18.3109C11.4644 18.77 10.8126 19.8133 10.5769 21.1093C10.3034 22.6467 10.8797 24.3738 11.9091 25.2105C12.1332 25.3885 12.2735 25.481 12.4436 25.5332C12.6167 25.5864 12.8285 25.6002 13.2011 25.6002C13.5738 25.6002 13.7855 25.5864 13.9587 25.5332C14.1288 25.481 14.2691 25.3885 14.4932 25.2105C14.7588 24.9953 15.162 24.4767 15.3695 24.0617L15.3698 24.0611C15.5553 23.6968 15.6488 23.4889 15.6992 23.2057C15.7504 22.9174 15.7574 22.5486 15.7574 21.8619C15.7574 21.2164 15.7472 20.8357 15.7038 20.5523C15.6612 20.2746 15.5864 20.0898 15.4506 19.8374L15.4506 19.8375L15.4499 19.8361C15.0832 19.1289 14.591 18.5777 14.125 18.3384L14.125 18.3384L14.1238 18.3377C13.9331 18.2365 13.5713 18.1767 13.1998 18.1718C13.0167 18.1693 12.8364 18.1803 12.6806 18.2044C12.5227 18.2289 12.3983 18.2656 12.3211 18.3097Z" fill="#F15E32" stroke="white" stroke-width="0.2"/>
<path d="M38.7675 24.8164L38.7676 24.8163C39.7925 23.4669 39.9635 21.3431 39.1827 19.7682C38.8195 19.042 38.3015 18.5505 37.7341 18.3223C37.1683 18.0947 36.546 18.1255 35.9612 18.456C35.6731 18.6189 35.3544 18.9351 35.0764 19.3161C34.7994 19.6957 34.5699 20.1301 34.4542 20.5216C34.3321 20.9593 34.2857 21.5585 34.3119 22.158C34.3382 22.7579 34.4368 23.3469 34.5975 23.7648C35.0659 24.9617 36.0989 25.7994 37.0941 25.7994C37.1936 25.7994 37.3255 25.7704 37.4774 25.7148C37.628 25.6597 37.7924 25.5807 37.9552 25.4859C38.2826 25.2954 38.5924 25.0477 38.7675 24.8164Z" fill="#F15E32" stroke="white" stroke-width="0.2"/>
<path d="M24.002 22.0046L24.0006 22.0051C23.8248 22.0657 23.6161 22.1619 23.4257 22.2689C23.2316 22.378 23.0757 22.4876 22.9936 22.5697L22.9936 22.5698L22.9888 22.5744C22.81 22.744 22.2576 23.3878 21.5086 24.29C20.7661 25.1844 19.8443 26.3156 18.9358 27.4439C18.0274 28.5722 17.133 29.6967 16.4453 30.5778C16.1013 31.0185 15.8097 31.3974 15.5941 31.6851C15.3721 31.9812 15.2456 32.1614 15.2151 32.2186C15.0892 32.4577 15.0166 32.6412 14.9731 32.8472C14.9288 33.057 14.9121 33.3016 14.9121 33.6676C14.9249 35.0214 15.5624 36.0495 16.7768 36.6446L17.4297 36.959L19.324 36.767C20.4038 36.6471 21.974 36.514 22.8142 36.4607L22.8142 36.4606L22.8182 36.4604C24.5086 36.3799 28.8254 36.567 31.171 36.8202L31.1716 36.8203C32.1388 36.927 32.6891 36.9431 33.1098 36.8335C33.5139 36.7282 33.8231 36.4997 34.286 36.0304C35.325 34.9661 35.6216 33.4308 35.0496 32.2504L35.0486 32.2483C35.0366 32.223 34.9996 32.1614 34.9275 32.0561C34.8587 31.9557 34.7662 31.8272 34.6526 31.6738C34.4256 31.3673 34.1183 30.9672 33.7561 30.5044C33.0318 29.5792 32.0912 28.4081 31.1414 27.2443C30.1916 26.0805 29.2335 24.9251 28.4744 24.0313C28.0947 23.5843 27.7656 23.2037 27.5125 22.9205C27.3859 22.7788 27.2794 22.6628 27.1958 22.5755C27.1094 22.4854 27.0575 22.4368 27.0353 22.4195C26.5653 22.0689 26.0999 21.8667 25.6129 21.7989C25.1246 21.7308 24.5975 21.7956 24.002 22.0046Z" fill="#F15E32" stroke="white" stroke-width="0.5"/>
<defs>
<filter id="filter0_d_394_614" x="0" y="0" width="50.1718" height="66.2195" filterUnits="userSpaceOnUse" color-interpolation-filters="sRGB">
<feFlood flood-opacity="0" result="BackgroundImageFix"/>
<feColorMatrix in="SourceAlpha" type="matrix" values="0 0 0 0 0 0 0 0 0 0 0 0 0 0 0 0 0 0 127 0" result="hardAlpha"/>
<feOffset dy="1"/>
<feGaussianBlur stdDeviation="1"/>
<feComposite in2="hardAlpha" operator="out"/>
<feColorMatrix type="matrix" values="0 0 0 0 0 0 0 0 0 0 0 0 0 0 0 0 0 0 0.35 0"/>
<feBlend mode="normal" in2="BackgroundImageFix" result="effect1_dropShadow_394_614"/>
<feBlend mode="normal" in="SourceGraphic" in2="effect1_dropShadow_394_614" result="shape"/>
</filter>
</defs>
</svg>
