<svg width="13" height="14" viewBox="0 0 13 14" fill="none" xmlns="http://www.w3.org/2000/svg">
<path d="M0.875 3.21875C0.875 2.72147 1.07254 2.24456 1.42417 1.89292C1.77581 1.54129 2.25272 1.34375 2.75 1.34375H10.25C10.7473 1.34375 11.2242 1.54129 11.5758 1.89292C11.9275 2.24456 12.125 2.72147 12.125 3.21875V9.78125C12.125 10.2785 11.9275 10.7554 11.5758 11.1071C11.2242 11.4587 10.7473 11.6562 10.25 11.6562H2.75C2.25272 11.6562 1.77581 11.4587 1.42417 11.1071C1.07254 10.7554 0.875 10.2785 0.875 9.78125V3.21875Z" fill="#F3C07B"/>
<path d="M10.2795 9.23938C10.2795 7.14172 8.25781 6.48547 6.52953 6.48547C4.59594 6.48547 2.75 7.21719 2.75 9.23938C2.75 11.0909 4.77172 12.6814 6.52953 12.6814C8.63891 12.6814 10.2795 10.4989 10.2795 9.23938Z" fill="#FFDEA7"/>
<path d="M5.09 10.5575L6.5 9.50281L7.91 10.5575V11.6562C7.91 12.433 7.27672 13.0625 6.5 13.0625C6.12666 13.0626 5.76852 12.9146 5.50417 12.651C5.23982 12.3873 5.09087 12.0296 5.09 11.6562V10.5575Z" fill="#CA0B4A"/>
<path d="M4.49656 1.84391L1.07469 6.66969C0.744222 7.13563 0.0106277 6.90172 0.0106277 6.33079V3.02844C0.0106277 2.469 0.232865 1.93247 0.628449 1.53689C1.02403 1.1413 1.56056 0.919067 2.12 0.919067H4.01844C4.12594 0.919041 4.23137 0.948587 4.3232 1.00447C4.41503 1.06036 4.48971 1.14043 4.53908 1.23592C4.58845 1.33141 4.61059 1.43864 4.60309 1.54588C4.5956 1.65311 4.55874 1.75622 4.49656 1.84391ZM8.48891 1.84391L11.9108 6.66969C12.2408 7.13563 12.9748 6.90172 12.9748 6.33079V3.02844C12.9748 2.469 12.7526 1.93247 12.357 1.53689C11.9614 1.1413 11.4249 0.919067 10.8655 0.919067H8.96703C8.85954 0.919041 8.7541 0.948587 8.66227 1.00447C8.57045 1.06036 8.49576 1.14043 8.44639 1.23592C8.39703 1.33141 8.37488 1.43864 8.38238 1.54588C8.38988 1.65311 8.42673 1.75622 8.48891 1.84391Z" fill="#6D4534"/>
<path d="M4.625 5.09375C4.625 4.96943 4.67439 4.8502 4.76229 4.76229C4.8502 4.67439 4.96943 4.625 5.09375 4.625C5.21807 4.625 5.3373 4.67439 5.42521 4.76229C5.51311 4.8502 5.5625 4.96943 5.5625 5.09375V5.5625C5.5625 5.68682 5.51311 5.80605 5.42521 5.89396C5.3373 5.98186 5.21807 6.03125 5.09375 6.03125C4.96943 6.03125 4.8502 5.98186 4.76229 5.89396C4.67439 5.80605 4.625 5.68682 4.625 5.5625V5.09375ZM7.4375 5.09375C7.4375 4.96943 7.48689 4.8502 7.57479 4.76229C7.6627 4.67439 7.78193 4.625 7.90625 4.625C8.03057 4.625 8.1498 4.67439 8.23771 4.76229C8.32561 4.8502 8.375 4.96943 8.375 5.09375V5.5625C8.375 5.68682 8.32561 5.80605 8.23771 5.89396C8.1498 5.98186 8.03057 6.03125 7.90625 6.03125C7.78193 6.03125 7.6627 5.98186 7.57479 5.89396C7.48689 5.80605 7.4375 5.68682 7.4375 5.5625V5.09375ZM7.03672 6.96875H5.95063C5.67687 6.96875 5.42234 7.35125 5.65156 7.65922C5.80719 7.86828 6.19813 8.28641 6.51453 8.28641C6.83094 8.28641 7.20219 7.86828 7.34797 7.65922C7.60063 7.26359 7.26125 6.97438 7.03672 6.96875ZM6.73438 8.61688C6.73438 8.55472 6.70968 8.4951 6.66573 8.45115C6.62177 8.40719 6.56216 8.3825 6.5 8.3825H6.49484C6.43268 8.3825 6.37307 8.40719 6.32912 8.45115C6.28516 8.4951 6.26047 8.55472 6.26047 8.61688C6.26047 8.65531 6.26125 8.69344 6.26281 8.73125C6.20844 9.77187 5.41625 10.2425 4.87391 10.2425C4.81175 10.2425 4.75213 10.2672 4.70818 10.3111C4.66422 10.3551 4.63953 10.4147 4.63953 10.4769C4.63953 10.539 4.66422 10.5986 4.70818 10.6426C4.75213 10.6866 4.81175 10.7112 4.87391 10.7112C5.44156 10.7112 6.13953 10.3616 6.49719 9.66031C6.85531 10.3616 7.55328 10.7112 8.12047 10.7112C8.18263 10.7112 8.24224 10.6866 8.2862 10.6426C8.33015 10.5986 8.35484 10.539 8.35484 10.4769C8.35484 10.4147 8.33015 10.3551 8.2862 10.3111C8.24224 10.2672 8.18263 10.2425 8.12047 10.2425C7.57859 10.2425 6.78641 9.77187 6.73203 8.73125C6.73359 8.69375 6.73438 8.65563 6.73438 8.61688Z" fill="#212121"/>
</svg>
