<svg width="218" height="198" viewBox="0 0 218 198" fill="none" xmlns="http://www.w3.org/2000/svg">
<path d="M109.418 195.598C155.222 195.598 192.353 184.308 192.353 170.381C192.353 156.453 155.222 145.163 109.418 145.163C63.6146 145.163 26.4834 156.453 26.4834 170.381C26.4834 184.308 63.6146 195.598 109.418 195.598Z" fill="#BBA8A0"/>
<path d="M109.418 185.182C148.124 185.182 179.502 177.092 179.502 167.113C179.502 157.134 148.124 149.045 109.418 149.045C70.7124 149.045 39.335 157.134 39.335 167.113C39.335 177.092 70.7124 185.182 109.418 185.182Z" fill="#A28B8F"/>
<path d="M32.3934 36.1372L46.7223 23.7378L57.5108 14.1031L66.0691 10.8915H75.2686L77.8612 12.9302L97.0128 5.38998L114.91 2.62524L135.706 9.96996L139.386 12.9302L146.272 11.3663L154.273 11.5897L162.775 16.8678L171.724 24.8828L179.279 31.8086L187.893 38.902L192.325 50.1564C192.325 50.1564 190.708 64.9296 183.85 70.2915C176.993 75.6535 169.271 73.3076 169.271 73.3076C169.271 73.3076 166.79 95.3697 145.129 105.926L152.405 123.883L154.273 125.112C154.273 125.112 160.517 115.393 159.235 108.942L162.552 108.02C162.552 108.02 166.399 107.322 170.441 113.997C174.484 120.643 177.439 132.121 171.724 139.019C171.724 139.019 177.104 161.751 157.897 169.543C157.897 169.543 145.129 173.899 137.797 169.543C137.797 169.543 123.357 178.507 114.185 170.241C114.185 170.241 103.787 170.8 102.142 170.241C102.142 170.241 92.3294 179.848 79.1156 169.794C79.1156 169.794 40.1433 180.378 46.6665 142.259C46.6665 142.259 47.7259 136.087 60.3264 135.612L72.7039 108.048C72.7039 108.048 46.778 94.3085 49.5379 73.8382C49.5379 73.8382 26.1768 76.7985 26.6507 51.5528C26.6786 51.4969 24.8665 39.4326 32.3934 36.1372Z" fill="white"/>
<path d="M162.887 78.837C157.144 73.0841 154.273 67.1637 156.196 58.4226L156.615 57.3056C153.158 41.4153 156.057 20.3307 139.554 16.1417C131.832 7.23308 122.549 3.29543 111.091 6.50699C100.693 17.6497 100.303 29.2393 105.265 41.0523C107.077 45.353 109.781 49.2068 113.182 52.4184L115.523 54.5967C119.008 57.8641 121.461 62.081 122.632 66.7169L125.141 76.8542C126.173 80.9874 128.124 86.2097 131.218 89.142C137.1 94.6994 144.488 97.2966 150.314 97.6596C156.503 91.8229 159.737 83.808 162.887 78.837Z" fill="#CE8851"/>
<path d="M147.443 112.656L144.488 111.735C141.505 121.928 140.92 129.384 156.698 136.478L158.984 136.198L147.443 112.656Z" fill="#CE8851"/>
<path d="M154.273 125.112L157.897 121.453C166.428 117.432 172.143 121.342 175.46 131.982L170.414 139.047L157.87 135.556L154.273 125.112Z" fill="#CE8851"/>
<path d="M75.2413 12.9302C75.2413 12.9302 51.685 16.2255 29.2438 58.702C28.0172 70.0123 34.5684 74.2013 46.7229 73.2797C57.4835 70.7384 61.3026 63.0864 60.3548 51.8599C60.6336 31.8086 67.6865 18.5993 75.2413 12.9302Z" fill="#CE8851"/>
<path d="M50.2634 147.257C49.455 145.666 50.0962 143.906 51.6294 143.208C52.1312 142.985 52.6609 142.957 53.1627 143.124C55.0583 143.711 56.5358 146.392 56.0619 148.319C55.7274 149.631 53.9432 150.357 52.6609 149.687C51.6294 149.156 50.9325 148.263 50.2634 147.257Z" fill="#DC775F"/>
<path d="M156.197 143.571C158.26 142.594 160.016 143.766 159.849 146.029C159.737 147.592 159.012 148.877 157.507 149.547C156.42 150.05 155.639 149.827 154.914 148.849C153.716 147.146 154.217 144.911 156.197 143.571Z" fill="#DC775F"/>
<path d="M157.785 77.0777C161.047 80.5965 158.594 84.5341 152.572 85.3161C148.418 85.8467 144.766 85.0368 142.453 82.4675C141.254 80.373 141.561 78.7533 143.428 77.1615C147.498 73.9778 153.576 73.8941 157.785 77.0777Z" fill="#F59B8C"/>
<path d="M61.804 77.3568C58.5424 80.8756 60.9956 84.8133 67.0171 85.5952C71.1708 86.1258 74.8227 85.3159 77.1365 82.7467C78.3352 80.6522 78.0286 79.0324 76.1608 77.4406C72.1186 74.2291 66.0414 74.1732 61.804 77.3568Z" fill="#F59B8C"/>
<path d="M161.438 147.425C161.326 145.694 162.162 144.576 163.501 143.795C164.644 143.124 165.787 143.152 166.511 143.85C167.32 144.632 167.571 146.057 166.985 147.146C166.288 148.43 165.201 149.24 163.779 149.603C162.804 149.827 161.856 148.961 161.438 147.425Z" fill="#DC775F"/>
<path d="M62.891 148.318C62.0269 149.799 61.1069 150.273 59.8803 149.91C58.7373 149.575 57.5107 147.816 57.5107 146.531C57.5107 145.163 58.2634 144.102 59.4343 143.711C60.4379 143.403 61.6923 143.906 62.4171 144.995C63.0862 146.001 63.4765 147.062 62.891 148.318Z" fill="#DC775F"/>
<path d="M165.424 150.972C165.758 150.246 165.981 149.547 166.622 149.129C167.542 148.486 168.407 148.682 169.326 149.156C170.135 149.575 170.051 150.301 170.023 151.055C169.968 152.424 169.494 153.541 168.267 154.267C166.957 155.049 165.925 154.686 165.424 153.206C165.173 152.452 165.284 151.754 165.424 150.972Z" fill="#DC775F"/>
<path d="M47.3081 151.754C47.2524 151.111 47.1409 150.553 47.3639 149.994C47.8657 148.821 49.2595 148.598 50.3746 149.492C51.657 150.525 52.0194 151.949 51.8242 153.485C51.6291 154.909 50.4861 155.356 49.2595 154.602C48.2281 153.96 47.7263 152.954 47.3081 151.754Z" fill="#DC775F"/>
<path d="M133.7 34.7689C132.864 35.0202 131.693 35.9418 131.525 36.5003C131.47 36.612 131.386 36.7238 131.33 36.7238C131.275 36.7238 131.219 37.1427 131.219 37.6453C131.219 38.1759 131.275 38.5669 131.33 38.5669C131.414 38.5669 131.442 38.6507 131.442 38.7624C131.442 38.9858 131.971 39.5723 132.194 39.5723C132.25 39.5723 132.306 39.6281 132.306 39.684C132.306 39.7398 132.445 39.7957 132.613 39.7957C132.78 39.7957 132.919 39.8515 132.919 39.9074C132.919 39.9632 133.226 40.0191 133.588 40.0191C133.951 40.0191 134.257 40.075 134.257 40.1308C134.257 40.2146 134.62 40.2425 135.122 40.2425C135.623 40.2425 135.986 40.2984 135.986 40.3542C135.986 40.4101 136.069 40.4659 136.153 40.4659C136.237 40.4659 136.738 40.6056 137.268 40.7731C138.439 41.1362 139.359 41.1641 139.861 40.8569C140.335 40.5218 140.697 40.1308 140.697 39.9074C140.697 39.7957 140.753 39.7119 140.809 39.7119C140.892 39.7119 140.92 39.2651 140.92 38.6786C140.92 37.6174 140.725 37.0589 140.223 36.5283C140.139 36.4445 140.056 36.3049 140.056 36.249C140.056 36.1932 139.972 36.1373 139.889 36.1373C139.805 36.1373 139.666 36.0256 139.554 35.886C139.443 35.7463 139.303 35.6346 139.22 35.6346C139.136 35.6346 139.052 35.5788 139.052 35.5229C139.052 35.4112 137.826 34.8527 137.129 34.6572C136.599 34.6013 134.285 34.6013 133.7 34.7689Z" fill="black"/>
<path d="M81.2067 34.9642C80.9837 34.9922 80.7328 35.0759 80.6492 35.1318C80.5655 35.1876 80.3704 35.2435 80.2031 35.2435C80.0359 35.2435 79.8129 35.2994 79.785 35.3552C79.7571 35.4111 79.5898 35.4669 79.4505 35.4669C79.3389 35.4669 79.2274 35.5228 79.2274 35.5786C79.2274 35.6345 79.1159 35.6903 79.0044 35.6903C78.8929 35.6903 78.6978 35.802 78.6141 35.9417C78.5026 36.0813 78.3632 36.193 78.2796 36.193C77.8057 36.193 76.8857 37.8128 76.8857 38.7064C76.8857 39.6838 77.8336 40.9405 78.6978 41.1081C79.1996 41.1919 80.454 41.0802 80.5655 40.9126C80.5934 40.8568 80.7607 40.8009 80.9279 40.8009C81.0952 40.8009 81.2625 40.7451 81.2904 40.6892C81.3182 40.6054 81.597 40.5775 81.8479 40.5775C82.0988 40.5775 82.3218 40.5216 82.3218 40.4658C82.3218 40.382 82.6842 40.3541 83.186 40.3541C83.6878 40.3541 84.0502 40.2982 84.0502 40.2424C84.0502 40.1586 84.3011 40.1307 84.6077 40.1307C84.9144 40.1307 85.1653 40.0748 85.1653 40.019C85.1653 39.9352 85.3047 39.9073 85.4719 39.9073C85.6392 39.9073 85.7786 39.8514 85.7786 39.7955C85.7786 39.7118 85.8343 39.6838 85.918 39.6838C86.0852 39.6838 86.3919 39.3766 86.3919 39.2091C86.3919 39.1253 86.4476 39.0695 86.5034 39.0695C86.587 39.0695 86.6149 38.9577 86.6149 38.8181C86.6149 38.6785 86.6707 38.5668 86.7264 38.5668C86.81 38.5668 86.8379 38.2317 86.8379 37.8128C86.8379 37.3939 86.7822 37.0587 86.7264 37.0587C86.6707 37.0587 86.6149 36.975 86.6149 36.8632C86.6149 36.6398 85.8343 35.802 85.6113 35.802C85.5556 35.802 85.4998 35.7462 85.4998 35.6903C85.4998 35.6345 85.2768 35.5228 84.9701 35.439C84.6635 35.3552 84.3011 35.2156 84.1338 35.1597C83.8272 34.9642 81.8758 34.8805 81.2067 34.9642Z" fill="black"/>
<path d="M106.464 65.9071C106.464 65.963 106.241 66.0188 106.018 66.0188C105.572 66.0188 104.903 66.1864 104.485 66.4098C104.373 66.4656 104.206 66.5215 104.15 66.5215C103.983 66.5215 103.593 66.8566 102.924 67.5269C101.976 68.4764 101.892 69.2583 102.505 70.7384C102.728 71.2411 103.843 72.6095 104.122 72.7212C104.234 72.7771 104.429 72.9167 104.54 73.0284C104.652 73.1401 104.847 73.2518 104.959 73.2518C105.07 73.2518 105.154 73.3077 105.154 73.3635C105.154 73.4194 105.405 73.6149 105.739 73.7824C106.074 73.95 106.352 74.1175 106.352 74.1734C106.38 74.2293 106.492 74.2851 106.603 74.2851C107.021 74.2851 107.133 74.7319 106.994 75.5977C106.91 76.0445 106.798 76.4075 106.771 76.4075C106.715 76.4075 106.659 76.5751 106.603 76.7706C106.575 76.9661 106.436 77.2174 106.325 77.3291C106.213 77.4408 106.129 77.5805 106.129 77.6363C106.129 77.748 105.628 78.2786 105.209 78.6137C105.098 78.6975 104.68 78.9489 104.234 79.1723C103.509 79.5353 103.37 79.5632 102.031 79.5632C101.028 79.5632 100.61 79.5353 100.554 79.4236C100.526 79.3398 100.442 79.284 100.331 79.284C100.08 79.284 99.1601 78.3903 99.1601 78.139C99.1601 78.0273 99.1043 77.8876 99.0486 77.8597C98.9928 77.8318 98.9371 77.6363 98.9371 77.4967C98.9371 76.9381 98.6304 76.0166 98.3795 75.7652C97.8499 75.2346 96.8742 75.0671 96.1772 75.3742C95.7312 75.5697 95.09 76.212 95.09 76.4913C95.09 76.603 95.0343 76.6868 94.9785 76.6868C94.8391 76.6868 94.8112 78.2228 94.9785 78.53C95.0343 78.6417 95.2015 79.0047 95.3688 79.3678C95.5361 79.7029 95.7033 80.0659 95.7869 80.1497C95.9542 80.3731 97.6268 82.0487 97.8777 82.2721C98.2123 82.5514 99.634 83.1658 99.9685 83.1658C100.136 83.1658 100.303 83.2216 100.359 83.2775C100.47 83.4451 103.063 83.4451 103.565 83.2775C103.788 83.2216 104.206 83.082 104.513 82.9982C105.182 82.8027 107.244 81.7694 107.244 81.6298C107.244 81.574 107.328 81.5181 107.412 81.5181C107.495 81.5181 107.858 81.2388 108.22 80.9037C108.806 80.3452 109.224 80.1218 109.224 80.3731C109.224 80.5127 109.67 81.0154 109.781 81.0154C109.809 81.0154 110.06 81.2109 110.311 81.4623C110.785 81.9091 112.067 82.6352 112.374 82.6352C112.485 82.6352 112.569 82.691 112.597 82.7469C112.708 83.0261 114.409 83.3054 115.803 83.3054C117.475 83.3054 117.921 83.1937 119.232 82.5793C120.653 81.9091 121.35 81.3785 122.187 80.3731C122.521 79.9821 123.107 78.7534 123.107 78.4741C123.107 78.3065 123.162 78.1669 123.218 78.1669C123.302 78.1669 123.33 77.8318 123.33 77.4408C123.33 76.1283 122.326 75.067 121.072 75.067C120.57 75.067 120.43 75.1229 120.012 75.5418C119.622 75.9049 119.51 76.1283 119.455 76.603C119.399 76.9381 119.343 77.4408 119.287 77.748C119.232 78.0552 119.148 78.3065 119.092 78.3065C119.037 78.3065 118.981 78.3903 118.981 78.4462C118.981 78.6417 118.089 79.284 117.81 79.284C117.698 79.284 117.615 79.3398 117.615 79.3957C117.615 79.647 115.468 79.7867 114.632 79.5912C114.409 79.5353 113.963 79.3678 113.684 79.2002C113.071 78.8651 111.705 77.5525 111.593 77.1895C111.565 77.0498 111.454 76.9381 111.398 76.9381C111.342 76.9381 111.287 76.8264 111.287 76.6868C111.287 76.5472 111.231 76.4355 111.175 76.4355C111.119 76.4355 111.036 76.3238 111.008 76.1562C110.98 76.0166 110.869 75.5697 110.757 75.1788C110.562 74.4806 110.562 74.4806 110.869 74.2851C111.036 74.1734 111.315 74.0896 111.482 74.0896C111.649 74.0896 111.788 74.0338 111.788 73.9779C111.788 73.9221 111.956 73.8383 112.151 73.8103C112.346 73.7824 112.597 73.6428 112.708 73.5311C112.82 73.4194 112.987 73.3356 113.071 73.3356C113.182 73.3356 113.322 73.2239 113.405 73.0843C113.517 72.9446 113.628 72.8329 113.684 72.8329C113.824 72.8329 115.134 71.4645 115.134 71.297C115.134 71.2132 115.245 71.0177 115.385 70.8501C115.524 70.6826 115.636 70.4033 115.636 70.2637C115.636 70.124 115.691 69.9844 115.747 69.9844C115.831 69.9844 115.859 69.7051 115.859 69.37C115.859 68.7836 115.719 68.3926 115.413 68.0295C115.329 67.9458 115.217 67.8061 115.162 67.6944C115.05 67.4989 113.935 66.717 113.517 66.5494C112.904 66.2981 112.318 66.1305 111.928 66.1305C111.705 66.1305 111.538 66.0747 111.538 66.0188C111.538 65.935 110.618 65.9071 109.001 65.9071C107.384 65.9071 106.464 65.8233 106.464 65.9071Z" fill="black"/>
<path d="M113.5 82.9998C115.846 86.5246 114.12 90.4419 110.201 90.847C107.494 91.1268 105.04 90.1619 103.367 87.5689C102.467 85.5048 102.579 83.9679 103.714 82.5431C106.216 79.7392 110.539 79.7325 113.5 82.9998Z" fill="#DC775F"/>
<path fill-rule="evenodd" clip-rule="evenodd" d="M101 82.0315C100.676 82.0244 100.343 82.0102 100 81.9895C100 82.6461 100.077 83.3246 100.221 84.0046C101.065 87.9768 104.228 91.9998 108 91.9998C108.168 91.9998 108.335 91.9918 108.5 91.9762C108.665 91.9918 108.832 91.9998 109 91.9998C112.767 91.9998 115.926 87.988 116.775 84.0213C116.922 83.3357 117 82.6515 117 81.9895C116.656 82.027 116.323 82.0546 116 82.0696C116 82.0428 116 82.0162 116 81.9895C114.974 81.9631 114.02 81.9135 113.132 81.7242C112.224 81.3975 111.415 80.821 110.683 79.8891C110.278 79.3739 109.896 78.7501 109.533 77.9998C109.376 78.2842 109.199 78.5464 109.004 78.7889C108.844 78.5452 108.687 78.2827 108.533 77.9998C108.278 78.8249 107.913 79.5013 107.44 80.0484C107.39 80.1059 107.339 80.162 107.287 80.2167C105.745 81.0923 103.649 81.5573 101 81.9895C101 82.0035 101 82.0175 101 82.0315ZM113.74 83.9432C113.35 83.8753 112.963 83.7796 112.581 83.65C112.07 83.5338 111.56 83.3757 111.059 83.1592C110.228 82.7993 109.47 82.3022 108.78 81.6458C108.696 81.7007 108.612 81.7542 108.526 81.8064C107.919 82.3898 107.202 82.8567 106.381 83.2069C105.432 83.6117 104.382 83.8438 103.263 83.9548C103.576 85.1801 104.158 86.426 104.946 87.4834C106.03 88.9369 107.298 89.7768 108.5 89.9611C109.702 89.7768 110.97 88.9369 112.054 87.4834C112.845 86.4227 113.427 85.1722 113.74 83.9432Z" fill="black"/>
<path d="M108.75 149.408C114.693 149.408 119.51 145.444 119.51 140.555C119.51 135.666 114.693 131.702 108.75 131.702C102.807 131.702 97.9893 135.666 97.9893 140.555C97.9893 145.444 102.807 149.408 108.75 149.408Z" fill="#E8CDB3"/>
<path d="M187.335 63.7565C187.419 63.5052 187.502 63.2259 187.558 62.9467C188.311 59.8189 187.781 56.4956 186.22 53.675C164.253 14.075 141.812 12.9021 141.812 12.9021C149.366 18.5712 156.419 29.7139 156.726 49.7932C156.503 52.2787 156.531 54.5966 156.809 56.719L157.897 53.7588C160.489 68.4203 178.777 71.2409 187.335 63.7565Z" fill="#CE8851"/>
<path d="M169.187 77.8875C167.989 82.1882 166.26 86.1258 164.086 89.7284C167.794 85.4556 169.689 81.4062 169.187 77.8875Z" fill="#CE8851"/>
<path d="M187.336 63.7568C185.468 69.7051 179.502 71.9113 170.358 71.2132C161.995 69.2304 157.814 64.1477 156.81 56.7192L156.587 57.3057C157.73 62.528 159.542 67.1917 162.971 70.515C166.818 72.5537 168.769 75.0671 169.187 77.9156C169.522 76.7426 169.801 75.5418 170.052 74.341C179.251 73.5869 185.523 72.1627 189.844 60.8524C189.148 61.9136 188.311 62.891 187.336 63.7568Z" fill="#B19AAD"/>
<path d="M159.876 94.0012C159.179 96.5984 155.305 97.9388 150.314 97.6316C147.192 100.564 143.345 102.938 138.411 104.083C78.1961 118.158 62.2224 94.5318 53.1623 76.1002C57.8178 74.1733 61.637 69.8726 61.6649 60.7964L46.7227 73.2796L51.1273 87.4384C84.2175 125.111 143.819 123.045 164.114 89.7005C162.887 91.1247 161.465 92.549 159.876 94.0012Z" fill="#B19AAD"/>
<path d="M170.358 71.213C179.502 71.9112 185.467 69.705 187.335 63.7566C178.777 71.241 160.489 68.4204 157.897 53.731L156.81 56.6912C157.813 64.1476 161.995 69.2303 170.358 71.213Z" fill="#91483C"/>
<path d="M46.6391 71.8275C55.4483 69.2862 60.2711 65.1251 59.9644 58.8975C54.5284 68.9231 36.436 72.6374 28.9092 59.7911V62.9468C32.4217 69.5934 38.1087 72.8887 46.6391 71.8275Z" fill="#91483C"/>
<path d="M162.97 70.4869C159.541 67.1636 157.729 62.4999 156.586 57.2776L156.168 58.3947C154.217 67.1357 157.116 73.0562 162.859 78.809C159.737 83.78 156.475 91.7949 150.286 97.6037C155.304 97.9109 159.151 96.5425 159.848 93.9732C161.437 92.521 162.859 91.0968 164.085 89.6725C166.26 86.0979 167.988 82.1323 169.187 77.8316C168.797 75.0389 166.817 72.5255 162.97 70.4869Z" fill="#91483C"/>
<path d="M163.222 161.221C163.807 160.439 164.281 158.512 164.281 158.512C164.281 158.512 164.477 156.808 164.281 155.97C163.306 151.698 159.431 150.245 156.058 152.787C155.389 153.289 154.719 153.792 154.19 154.407C152.127 156.892 150.761 159.629 151.765 163.092C152.015 163.511 152.238 163.874 152.517 164.181C156.002 163.874 159.375 163.092 162.609 161.947C162.832 161.723 163.027 161.472 163.222 161.221Z" fill="#DC775F"/>
<path d="M66.0138 160.243C65.8186 158.093 64.7314 156.222 63.2818 154.49C62.7521 153.848 62.0831 153.345 61.414 152.871C58.0409 150.329 54.1659 151.781 53.1902 156.054C52.9951 156.864 53.1902 158.596 53.1902 158.596C53.1902 158.596 53.4133 159.517 53.7478 160.355C57.9294 161.025 62.0273 161.332 66.0138 160.243Z" fill="#DC775F"/>
<path d="M162.636 161.975C161.577 163.231 160.378 164.321 158.901 165.075C158.455 165.298 158.009 165.521 157.535 165.661C155.416 166.276 153.855 165.829 152.545 164.209C148.837 164.516 145.046 164.265 141.227 163.259C115.831 179.848 113.6 159.741 115.914 146.14C111.565 150.134 107.272 150.19 102.979 146.14L103.425 164.684C91.3543 174.626 82.127 167.616 73.6802 156.026C71.1991 158.233 68.6344 159.573 66.0418 160.271C66.1254 161.193 66.0418 162.17 65.7351 163.204C64.2855 165.717 62.5293 166.471 59.9924 165.745C59.5185 165.605 59.0725 165.382 58.6264 165.158C56.8423 164.265 55.4763 162.868 54.2776 161.332C54.0825 161.081 53.9152 160.746 53.7758 160.383C51.0996 159.936 48.3955 159.294 45.6914 158.791C54.0825 178.591 79.1441 169.794 79.1441 169.794C97.097 180.239 102.171 170.241 102.171 170.241H114.214C120.96 180.127 141.924 168.035 141.924 168.035C165.173 176.971 170.052 158.763 170.052 158.763C167.682 159.964 165.201 161.081 162.636 161.975Z" fill="#B19AAD"/>
<path d="M157.507 165.633C157.981 165.493 158.427 165.27 158.873 165.047C160.35 164.293 161.549 163.203 162.608 161.947C159.374 163.064 155.973 163.874 152.517 164.181C153.827 165.801 155.388 166.247 157.507 165.633Z" fill="#91483C"/>
<path d="M58.626 165.102C59.0721 165.326 59.5181 165.549 59.992 165.689C62.5288 166.415 64.2851 165.661 65.7347 163.148C66.0414 162.114 66.125 161.137 66.0414 160.215C62.0549 161.304 57.9291 160.997 53.7754 160.299C53.9148 160.662 54.082 161.025 54.2772 161.249C55.4759 162.84 56.8419 164.209 58.626 165.102Z" fill="#91483C"/>
<path d="M73.6799 107.993C73.6799 107.993 109.14 127.15 144.181 106.736L146.133 110.562C122.8 126.089 97.7101 126.983 70.8086 112.237L73.6799 107.993Z" fill="#B19AAD"/>
<path d="M156.698 133.266L174.874 127.876L171.724 138.963L156.698 133.266Z" fill="#91483C"/>
<path d="M160.964 97.0452C157.172 101.123 152.991 104.613 148.196 107.322C147.527 107.713 147.666 108.076 147.945 108.607C149.478 111.539 150.984 114.499 152.489 117.46C153.242 118.968 153.911 120.504 154.691 122.151C155.751 120.615 156.197 119.023 156.503 117.348C156.894 115.142 156.698 112.908 156.726 110.701C156.754 109.668 156.921 108.635 157.423 107.741C158.51 105.702 160.768 104.865 163.11 105.423C168.017 106.596 171.306 109.891 173.815 113.997C177.885 120.615 178.638 127.765 176.631 135.221C176.073 137.343 175.125 139.326 173.703 141.058C173.397 141.449 173.313 141.784 173.48 142.231C175.181 146.894 175.125 151.53 173.536 156.25C171.278 162.952 167.236 168.174 160.991 171.498C157.033 173.62 152.656 174.29 148.168 173.76C144.739 173.341 141.282 172.894 137.993 171.637C137.463 171.442 137.184 171.749 136.85 172.028C134.369 174.179 131.414 175.491 128.236 176.106C125.03 176.72 121.796 176.664 118.618 175.631C117.057 175.128 115.663 174.29 114.464 173.173C114.046 172.754 113.656 172.587 113.07 172.866C112.401 173.173 111.677 173.257 110.924 173.229C108.526 173.201 106.101 173.425 103.732 172.81C103.453 172.726 103.23 172.838 103.007 173.034C100.749 175.296 97.8774 176.134 94.8388 176.413C90.3784 176.832 86.1689 175.882 82.2383 173.676C81.5413 173.285 80.8723 172.838 80.3705 172.224C79.8687 171.637 79.339 171.637 78.6142 171.889C72.76 173.871 66.7385 174.709 60.6613 173.117C53.9707 171.358 48.9807 167.309 45.5239 161.277C44.5204 159.517 44.0743 157.618 43.5725 155.691C43.0707 153.653 42.5411 151.642 42.6805 149.547C42.8756 146.084 43.7398 142.789 45.9142 139.968C47.8377 137.483 50.3746 136.003 53.2459 134.97C54.361 134.579 55.4761 134.495 56.6469 134.495C58.6541 134.523 59.3232 133.936 59.9643 132.065C60.9958 129.049 62.2224 126.089 63.1981 123.045C64.1459 120.168 65.4562 117.432 66.7106 114.667C67.3797 113.159 68.2718 111.763 69.0244 110.31C69.2196 109.947 69.359 109.528 69.4705 109.11C69.6935 108.3 69.5262 107.657 68.7178 107.183C63.6999 104.25 59.3232 100.536 55.6712 95.984C52.9114 92.549 50.6533 88.8906 49.2874 84.6458C48.6462 82.6351 47.9493 80.6802 47.7262 78.5857C47.6426 77.8317 47.1408 77.1335 46.8063 76.4074C46.639 76.0444 46.2487 76.0723 45.9142 76.1002C42.2902 76.6029 39.0564 75.3741 35.962 73.7544C31.0278 71.1851 27.7383 67.1358 25.9262 61.9414C25.2572 60.0145 24.6996 58.0038 24.6996 55.8813C24.6996 54.9318 24.393 53.9823 24.3651 53.0328C24.3094 50.7428 24.7554 48.5087 25.0899 46.2746C25.982 39.9352 29.829 35.5228 34.7354 32.004C41.0636 27.452 46.5275 22.0063 51.9915 16.5047C54.5283 13.9355 57.3996 11.7293 60.8564 10.4726C63.895 9.38345 67.073 9.07625 70.3068 9.24381C72.1467 9.35552 73.9866 9.4393 75.7986 9.74649C76.4955 9.8582 77.0531 10.2771 77.7779 10.333C79.4227 10.4726 80.7329 9.63479 82.0431 8.96455C85.1096 7.40065 88.3155 6.14396 91.605 5.22238C94.0303 4.55214 96.4835 3.90982 98.9646 3.40714C103.759 2.40178 108.61 2.15044 113.461 2.45764C115.719 2.59727 118.033 2.87654 120.291 3.37922C122.047 3.77019 123.747 4.3008 125.532 4.58006C126.563 4.74762 127.539 5.22238 128.487 5.61335C130.828 6.59078 133.226 7.40065 135.428 8.68528C135.902 8.96455 136.459 9.16003 136.906 9.49515C138.411 10.6401 140 10.3888 141.7 9.99783C143.122 9.69064 144.572 9.38345 146.049 9.18796C148.307 8.93662 150.537 9.04833 152.74 9.27174C155.249 9.55101 157.59 10.5005 159.765 11.7572C162.72 13.4607 165.201 15.7507 167.57 18.1524C172.7 23.3747 178.554 27.7033 184.269 32.1995C187.558 34.7688 190.151 37.9245 191.74 41.8342C192.688 44.1801 193.106 46.6655 193.357 49.1789C193.775 53.8427 193.106 58.3668 191.238 62.6675C189.566 66.5214 187.168 69.8167 183.739 72.2743C180.729 74.4246 177.355 75.7372 173.648 76.1561C173.118 76.2119 172.588 76.184 172.059 76.1282C170.693 75.9606 170.665 75.9606 170.386 77.329C169.187 83.3332 166.846 88.8348 163.333 93.8337C162.692 95.0066 161.828 95.984 160.964 97.0452ZM154.691 56.2444C154.496 51.5806 154.412 46.9169 153.911 42.2531C153.437 37.729 152.517 33.3445 150.51 29.2672C149.144 26.5025 147.666 23.7657 145.575 21.4757C141.115 16.5885 135.595 13.2373 129.685 10.4726C128.961 10.1375 128.431 9.49515 127.567 9.4393C126.117 9.32759 124.807 8.74113 123.385 8.51772C121.322 8.1826 119.315 7.40065 117.196 7.09346C113.266 6.56285 109.307 6.36737 105.321 6.56286C100.888 6.78627 96.5672 7.62407 92.3577 8.82491C87.4513 10.2212 82.8516 12.3716 78.5027 15.1643C72.76 18.8227 68.4669 23.5981 66.1252 30.0771C64.2296 35.3273 63.0308 40.6613 62.9751 46.2466C62.9193 50.1564 63.1423 54.0661 62.6406 57.9758C62.2782 60.8802 61.5533 63.5891 60.0201 66.1304C57.9851 69.5095 55.5597 72.4698 51.8799 74.1454C51.0994 74.5084 50.9321 74.9832 51.1273 75.7093C51.3782 76.6867 51.629 77.6362 51.8521 78.5857C52.4932 81.4063 53.3574 84.1431 54.6119 86.7403C57.3439 92.2977 61.6927 96.4588 66.404 100.257C70.3347 103.44 74.7114 105.982 79.4784 107.825C85.1375 110.031 90.936 111.595 96.9574 112.433C102.756 113.243 108.554 113.41 114.381 113.019C120.542 112.6 126.563 111.455 132.473 109.64C138.885 107.657 144.767 104.613 150.231 100.732C158.845 94.5877 164.588 86.5727 166.149 75.8768C166.288 74.9552 166.121 74.4805 165.201 74.0895C163.612 73.4193 162.134 72.4977 160.936 71.241C156.949 67.1358 154.914 62.1648 154.691 56.2444ZM102.087 164.265C102.17 162.924 102.003 161.612 101.752 160.299C101.055 156.389 99.6615 152.647 98.881 148.737C98.3792 146.168 97.6822 143.655 97.4314 141.03C97.3198 139.829 97.9053 139.019 98.9925 138.712C100.08 138.405 100.944 138.851 101.446 140.024C101.724 140.723 101.947 141.477 102.087 142.203C102.979 146.615 104.122 150.972 105.181 155.328C106.213 159.545 107.495 163.79 106.073 168.23C107.607 168.649 109.112 168.565 110.617 168.537C111.258 168.51 111.398 168.174 111.147 167.616C110.84 166.946 110.757 166.22 110.757 165.493C110.757 161.193 111.704 157.004 112.624 152.843C113.266 149.994 114.046 147.201 114.576 144.325C114.855 142.817 115.05 141.309 115.663 139.885C116.276 138.46 117.196 138.209 118.479 139.075C119.9 140.024 119.538 141.449 119.287 142.677C118.646 146.168 117.977 149.631 117.113 153.066C116.081 157.227 114.966 161.388 115.552 165.801C115.83 167.895 116.722 169.403 118.59 170.353C122.967 172.587 127.26 172 131.469 169.962C136.32 167.588 138.941 163.371 140.111 158.316C141.477 152.368 142.509 146.364 142.369 140.22C142.342 138.768 143.066 138.014 144.404 137.93C145.408 137.874 146.272 138.656 146.384 139.885C146.551 141.7 146.69 143.515 146.551 145.33C146.384 147.704 146.105 150.078 145.826 152.452C145.352 156.529 144.516 160.467 142.676 164.181C142.119 165.298 141.366 166.303 140.864 167.42C141.143 167.839 141.533 167.839 141.868 167.923C144.795 168.789 147.778 168.901 150.816 168.956C154.886 169.04 158.538 167.951 161.8 165.577C163.751 164.153 165.452 162.449 166.818 160.411C167.18 159.88 167.766 158.847 167.766 158.847C167.766 158.847 168.323 157.897 168.574 157.395C170.302 153.904 170.804 150.19 170.135 146.364C169.215 141.113 164.699 137.818 159.486 138.153C156.615 138.349 153.883 139.047 151.43 140.667C150.788 141.086 150.091 141.393 149.367 141.644C148.224 142.063 147.722 141.672 147.722 140.471C147.722 139.438 148.056 138.544 148.921 137.846C150.259 136.757 151.653 135.724 153.297 135.165C153.911 134.97 154.05 134.635 153.939 133.964C153.186 130.166 151.848 126.592 150.175 123.101C148.279 119.191 146.356 115.337 144.154 111.623C143.234 110.087 143.345 110.087 141.728 110.841C137.017 112.991 132.194 114.779 127.093 115.756C121.462 116.817 115.83 117.683 110.088 117.683C103.063 117.683 96.0932 117.376 89.2076 115.672C84.1897 114.416 79.2554 112.935 74.6278 110.618C74.1539 110.366 73.7357 110.143 73.3733 110.785C72.9273 111.623 72.4534 112.461 71.9794 113.299L70.9201 114.89C70.0001 116.734 68.8293 118.353 68.1603 120.224C67.1845 122.905 65.9858 125.475 65.1495 128.211C64.592 130.055 63.9787 131.87 63.3654 133.685C63.1702 134.299 63.2539 134.662 63.9229 134.886C65.4283 135.361 66.7106 136.226 67.9651 137.176C69.6935 138.516 69.7214 138.628 68.9408 140.639C68.3833 142.091 67.7421 142.314 66.5155 141.281C64.3689 139.494 61.9715 138.377 59.1559 138.153C57.0372 137.986 54.9464 138.069 52.995 138.824C48.6462 140.555 47.0014 143.794 46.6948 148.207C46.5275 150.636 46.8899 153.01 47.6705 155.328C48.5347 158.009 49.4546 159.098 49.4546 159.098C49.4546 159.489 50.2073 160.411 50.3746 160.662C54.2774 166.192 59.5462 169.208 66.3761 169.347C68.5227 169.403 70.6692 169.096 72.7879 168.817C74.0424 168.649 75.3526 168.621 76.4398 167.951C76.4677 167.56 76.2725 167.365 76.1331 167.141C74.2096 164.321 72.983 161.165 72.0909 157.897C71.3661 155.272 70.9759 152.591 70.6971 149.882C70.3347 146.503 70.3626 143.124 70.8643 139.773C71.0316 138.628 72.0073 137.79 73.0388 137.846C73.9308 137.902 74.7393 138.684 74.7114 139.633C74.5999 143.99 75.1574 148.291 75.715 152.591C76.3004 157.06 77.6106 161.193 80.0638 165.047C83.4091 170.325 90.239 173.006 96.3163 171.637C98.2955 171.19 100.275 170.464 101.278 168.37C101.892 167.169 101.836 165.773 102.087 164.265ZM160.824 17.7056C160.573 17.538 160.322 17.3705 160.099 17.2029C155.862 13.7679 150.956 12.6229 145.603 12.986C144.795 13.0418 143.986 13.1535 143.178 13.4607C144.795 14.4661 146.802 16.2534 146.802 16.2534C146.802 16.2534 147.443 17.0912 147.833 17.4543C148.224 17.8173 148.614 18.1803 148.976 18.5434C152.489 22.0621 154.552 26.4746 156.336 31.0266C158.761 37.2542 158.901 43.817 159.04 50.3798C159.096 53.0049 158.761 55.6021 159.152 58.2272C159.932 63.3936 162.441 67.443 167.041 69.9564C169.689 71.4086 172.561 71.3806 175.543 70.9059C182.68 69.7329 187.865 63.5891 188.841 57.2218C189.064 55.8255 188.813 54.4291 188.952 53.0887C189.398 48.9276 188.478 45.0458 186.639 41.3595C185.05 38.1479 182.318 35.9976 179.502 33.9031C174.874 30.4401 170.163 27.061 166.177 22.7882C164.56 21.0009 162.831 19.3253 160.824 17.7056ZM58.0408 49.1231C58.3196 44.4035 58.682 39.6839 59.9086 35.076C61.6927 28.3177 64.7871 22.2856 69.4984 17.1471C69.7214 16.8957 71.4498 15.4994 71.4498 15.4994C71.4498 15.4994 72.8994 14.4382 73.6521 13.7679C73.4012 13.2932 73.0666 13.2653 72.7321 13.2094C69.7214 12.7346 66.7106 12.9022 63.7835 13.6562C59.0165 14.8571 55.3925 17.929 52.2702 21.4478C47.3917 26.8935 41.9556 31.5851 35.962 35.7183C33.7319 37.2542 31.7247 39.1253 30.5539 41.6667C29.7454 43.426 29.2715 45.2692 28.9649 47.1682C28.3516 51.05 28.4352 54.9039 29.2436 58.7299C30.2193 63.3936 33.1464 66.5772 37.105 68.9789C43.2659 72.7211 50.4024 71.6878 55.0301 66.0466C57.2881 63.2819 58.0687 60.0145 58.0408 56.4957C57.9851 54.094 57.7899 51.6923 58.0408 49.1231ZM161.131 112.991C161.103 114.136 161.103 115.309 161.019 116.454C160.88 118.242 159.848 122.179 159.848 122.179C159.876 122.319 159.96 122.012 159.848 122.179C158.901 123.548 157.981 124.916 157.005 126.257C156.615 126.787 156.615 127.234 156.893 127.792C157.618 129.301 158.092 130.892 158.455 132.484C158.706 133.49 159.124 133.769 160.072 133.685C163.668 133.434 166.734 134.718 169.438 137.008C169.745 137.288 170.024 137.651 170.498 137.706C170.86 137.539 170.999 137.204 171.195 136.897C172.477 134.97 172.839 132.708 173.007 130.557C173.369 126.061 172.839 121.649 170.748 117.515C169.438 114.946 167.766 112.74 165.396 111.12C164.448 110.45 163.445 109.891 162.246 109.78C161.27 109.668 160.88 110.031 160.936 111.009C160.991 111.623 161.075 112.209 161.131 112.991Z" fill="black"/>
<path d="M72.1784 65.5174C72.7183 65.5839 73.3063 65.4369 73.7669 65.077L73.8396 65.0201C79.1403 60.9359 86.8387 61.6202 91.3419 66.56C92.1538 67.4493 93.5276 67.5087 94.4161 66.6971C95.3046 65.8854 95.3632 64.5112 94.5513 63.6218C91.615 60.3879 87.6051 58.4033 83.2673 58.023C78.9295 57.6427 74.6337 58.8902 71.1726 61.5562L71.0998 61.613C70.1545 62.3519 69.9663 63.7102 70.7055 64.6564C71.1035 65.1659 71.6169 65.4483 72.1784 65.5174Z" fill="black"/>
<path d="M145.783 66.1971C145.244 66.2636 144.656 66.1166 144.195 65.7567L144.122 65.6998C138.822 61.6156 131.123 62.2999 126.62 67.2397C125.808 68.129 124.434 68.1884 123.546 67.3768C122.657 66.5651 122.599 65.1909 123.411 64.3015C126.347 61.0676 130.357 59.083 134.695 58.7027C139.032 58.3224 143.328 59.5699 146.789 62.2359L146.862 62.2927C147.807 63.0316 147.996 64.3899 147.256 65.3361C146.858 65.8455 146.345 66.128 145.783 66.1971Z" fill="black"/>
</svg>
