<svg width="170" height="194" viewBox="0 0 170 194" fill="none" xmlns="http://www.w3.org/2000/svg">
<path d="M85.4182 193.598C131.222 193.598 168.353 182.308 168.353 168.381C168.353 154.453 131.222 143.163 85.4182 143.163C39.6146 143.163 2.4834 154.453 2.4834 168.381C2.4834 182.308 39.6146 193.598 85.4182 193.598Z" fill="#BBA8A0"/>
<path d="M85.4183 183.182C124.124 183.182 155.502 175.092 155.502 165.113C155.502 155.134 124.124 147.045 85.4183 147.045C46.7124 147.045 15.335 155.134 15.335 165.113C15.335 175.092 46.7124 183.182 85.4183 183.182Z" fill="#A28B8F"/>
<path d="M8.39338 34.1372L22.7223 21.7378L33.5108 12.1031L42.0691 8.89154H51.2686L53.8612 10.9302L73.0128 3.38998L90.91 0.625244L111.706 7.96996L115.386 10.9302L122.272 9.36629L130.273 9.5897L138.775 14.8678L147.724 22.8828L155.279 29.8086L163.893 36.902L168.325 48.1564C168.325 48.1564 166.708 62.9296 159.85 68.2915C152.993 73.6535 145.271 71.3076 145.271 71.3076C145.271 71.3076 142.79 93.3697 121.129 103.926L128.405 121.883L130.273 123.112C130.273 123.112 136.517 113.393 135.235 106.942L138.552 106.02C138.552 106.02 142.399 105.322 146.441 111.997C150.484 118.643 153.439 130.121 147.724 137.019C147.724 137.019 153.104 159.751 133.897 167.543C133.897 167.543 121.129 171.899 113.797 167.543C113.797 167.543 99.3568 176.507 90.1852 168.241C90.1852 168.241 79.787 168.8 78.1422 168.241C78.1422 168.241 68.3294 177.848 55.1156 167.794C55.1156 167.794 16.1433 178.378 22.6665 140.259C22.6665 140.259 23.7259 134.087 36.3264 133.612L48.7039 106.048C48.7039 106.048 22.778 92.3085 25.5379 71.8382C25.5379 71.8382 2.17676 74.7985 2.65067 49.5528C2.67855 49.4969 0.866531 37.4326 8.39338 34.1372Z" fill="white"/>
<path d="M138.887 76.837C133.144 71.0841 130.273 65.1637 132.196 56.4226L132.615 55.3056C129.158 39.4153 132.057 18.3307 115.554 14.1417C107.832 5.23308 98.5485 1.29543 87.091 4.50699C76.6928 15.6497 76.3025 27.2393 81.2647 39.0523C83.0767 43.353 85.7808 47.2068 89.1818 50.4184L91.5235 52.5967C95.0081 55.8641 97.4613 60.081 98.6322 64.7169L101.141 74.8542C102.173 78.9874 104.124 84.2097 107.218 87.142C113.1 92.6994 120.488 95.2966 126.314 95.6596C132.503 89.8229 135.737 81.808 138.887 76.837Z" fill="#CE8851"/>
<path d="M123.443 110.656L120.488 109.735C117.505 119.928 116.92 127.384 132.698 134.478L134.984 134.198L123.443 110.656Z" fill="#CE8851"/>
<path d="M130.273 123.112L133.897 119.453C142.428 115.432 148.143 119.342 151.46 129.982L146.414 137.047L133.87 133.556L130.273 123.112Z" fill="#CE8851"/>
<path d="M51.2413 10.9302C51.2413 10.9302 27.685 14.2255 5.24382 56.702C4.01722 68.0123 10.5684 72.2013 22.7229 71.2797C33.4835 68.7384 37.3026 61.0864 36.3548 49.8599C36.6336 29.8086 43.6865 16.5993 51.2413 10.9302Z" fill="#CE8851"/>
<path d="M26.2634 145.257C25.455 143.666 26.0962 141.906 27.6294 141.208C28.1312 140.985 28.6609 140.957 29.1627 141.124C31.0583 141.711 32.5358 144.392 32.0619 146.319C31.7274 147.631 29.9432 148.357 28.6609 147.687C27.6294 147.156 26.9325 146.263 26.2634 145.257Z" fill="#DC775F"/>
<path d="M132.197 141.571C134.26 140.594 136.016 141.766 135.849 144.029C135.737 145.592 135.012 146.877 133.507 147.547C132.42 148.05 131.639 147.827 130.914 146.849C129.716 145.146 130.217 142.911 132.197 141.571Z" fill="#DC775F"/>
<path d="M133.785 75.0777C137.047 78.5965 134.594 82.5341 128.572 83.3161C124.418 83.8467 120.766 83.0368 118.453 80.4675C117.254 78.373 117.561 76.7533 119.428 75.1615C123.498 71.9778 129.576 71.8941 133.785 75.0777Z" fill="#F59B8C"/>
<path d="M37.804 75.3568C34.5424 78.8756 36.9956 82.8133 43.0171 83.5952C47.1708 84.1258 50.8227 83.3159 53.1365 80.7467C54.3352 78.6522 54.0286 77.0324 52.1608 75.4406C48.1186 72.2291 42.0414 72.1732 37.804 75.3568Z" fill="#F59B8C"/>
<path d="M137.438 145.425C137.326 143.694 138.162 142.576 139.501 141.795C140.644 141.124 141.787 141.152 142.511 141.85C143.32 142.632 143.571 144.057 142.985 145.146C142.288 146.43 141.201 147.24 139.779 147.603C138.804 147.827 137.856 146.961 137.438 145.425Z" fill="#DC775F"/>
<path d="M38.891 146.318C38.0269 147.799 37.1069 148.273 35.8803 147.91C34.7373 147.575 33.5107 145.816 33.5107 144.531C33.5107 143.163 34.2634 142.102 35.4343 141.711C36.4379 141.403 37.6923 141.906 38.4171 142.995C39.0862 144.001 39.4765 145.062 38.891 146.318Z" fill="#DC775F"/>
<path d="M141.424 148.972C141.758 148.246 141.981 147.547 142.622 147.129C143.542 146.486 144.407 146.682 145.326 147.156C146.135 147.575 146.051 148.301 146.023 149.055C145.968 150.424 145.494 151.541 144.267 152.267C142.957 153.049 141.925 152.686 141.424 151.206C141.173 150.452 141.284 149.754 141.424 148.972Z" fill="#DC775F"/>
<path d="M23.3081 149.754C23.2524 149.111 23.1409 148.553 23.3639 147.994C23.8657 146.821 25.2595 146.598 26.3746 147.492C27.657 148.525 28.0194 149.949 27.8242 151.485C27.6291 152.909 26.4861 153.356 25.2595 152.602C24.2281 151.96 23.7263 150.954 23.3081 149.754Z" fill="#DC775F"/>
<path d="M110.75 32.6639C109.88 32.7336 108.541 33.3882 108.26 33.8991C108.182 33.9965 108.077 34.0882 108.023 34.0764C107.968 34.0647 107.825 34.4625 107.72 34.9539C107.608 35.4726 107.58 35.8666 107.635 35.8783C107.717 35.8959 107.726 35.9837 107.703 36.0929C107.656 36.3113 108.05 36.9961 108.268 37.043C108.323 37.0547 108.365 37.1211 108.354 37.1757C108.342 37.2303 108.466 37.3142 108.63 37.3494C108.793 37.3846 108.918 37.4685 108.906 37.5231C108.894 37.5777 109.182 37.6969 109.537 37.7731C109.891 37.8494 110.179 37.9685 110.167 38.0231C110.15 38.105 110.498 38.2086 110.989 38.3141C111.479 38.4197 111.822 38.5506 111.81 38.6052C111.798 38.6598 111.868 38.732 111.95 38.7496C112.032 38.7672 112.493 39.0093 112.976 39.2845C114.044 39.8858 114.937 40.1067 115.492 39.9119C116.026 39.684 116.463 39.3781 116.51 39.1596C116.533 39.0504 116.605 38.9803 116.66 38.992C116.742 39.0096 116.863 38.5786 116.986 38.0053C117.21 36.9679 117.136 36.3808 116.758 35.7565C116.693 35.657 116.641 35.5029 116.653 35.4482C116.665 35.3936 116.594 35.3214 116.513 35.3038C116.431 35.2862 116.318 35.1477 116.239 34.9877C116.159 34.8278 116.046 34.6892 115.964 34.6716C115.883 34.654 115.813 34.5818 115.824 34.5272C115.848 34.418 114.766 33.6139 114.126 33.2762C113.62 33.1101 111.358 32.6233 110.75 32.6639Z" fill="black"/>
<path d="M60.0894 32.6639C60.9599 32.7336 62.2984 33.3882 62.5794 33.8991C62.6575 33.9965 62.7627 34.0882 62.8172 34.0764C62.8717 34.0647 63.0144 34.4625 63.1201 34.9539C63.2318 35.4726 63.2595 35.8666 63.205 35.8783C63.1233 35.8959 63.1137 35.9837 63.1372 36.0929C63.1842 36.3113 62.7898 36.9961 62.5717 37.043C62.5172 37.0547 62.4745 37.1211 62.4862 37.1757C62.498 37.2303 62.3735 37.3142 62.2099 37.3494C62.0464 37.3846 61.9219 37.4685 61.9337 37.5231C61.9454 37.5777 61.6574 37.6969 61.3031 37.7731C60.9488 37.8494 60.6608 37.9685 60.6725 38.0231C60.6901 38.105 60.3417 38.2086 59.8512 38.3141C59.3606 38.4197 59.0181 38.5506 59.0298 38.6052C59.0416 38.6598 58.9716 38.732 58.8898 38.7496C58.8081 38.7672 58.3469 39.0093 57.8643 39.2845C56.7961 39.8858 55.9026 40.1067 55.3474 39.9119C54.8136 39.684 54.377 39.3781 54.33 39.1596C54.3065 39.0504 54.2344 38.9803 54.1799 38.992C54.0981 39.0096 53.9769 38.5786 53.8535 38.0053C53.6302 36.9679 53.7034 36.3808 54.0823 35.7565C54.1465 35.657 54.1988 35.5029 54.1871 35.4482C54.1753 35.3936 54.2453 35.3214 54.3271 35.3038C54.4089 35.2862 54.5216 35.1477 54.6013 34.9877C54.6809 34.8278 54.7937 34.6892 54.8754 34.6716C54.9572 34.654 55.0272 34.5818 55.0154 34.5272C54.9919 34.418 56.0735 33.6139 56.7137 33.2762C57.2198 33.1101 59.4818 32.6233 60.0894 32.6639Z" fill="black"/>
<path d="M82.4639 63.9071C82.4639 63.963 82.2409 64.0188 82.0179 64.0188C81.5719 64.0188 80.9028 64.1864 80.4846 64.4098C80.3731 64.4656 80.2059 64.5215 80.1501 64.5215C79.9829 64.5215 79.5926 64.8566 78.9235 65.5269C77.9757 66.4764 77.8921 67.2583 78.5054 68.7384C78.7284 69.2411 79.8435 70.6095 80.1222 70.7212C80.2338 70.7771 80.4289 70.9167 80.5404 71.0284C80.6519 71.1401 80.8471 71.2518 80.9586 71.2518C81.0701 71.2518 81.1537 71.3077 81.1537 71.3635C81.1537 71.4194 81.4046 71.6149 81.7391 71.7824C82.0736 71.95 82.3524 72.1175 82.3524 72.1734C82.3803 72.2293 82.4918 72.2851 82.6033 72.2851C83.0215 72.2851 83.133 72.7319 82.9936 73.5977C82.91 74.0445 82.7985 74.4075 82.7706 74.4075C82.7148 74.4075 82.6591 74.5751 82.6033 74.7706C82.5754 74.9661 82.4361 75.2174 82.3245 75.3291C82.213 75.4408 82.1294 75.5805 82.1294 75.6363C82.1294 75.748 81.6276 76.2786 81.2095 76.6137C81.0979 76.6975 80.6798 76.9489 80.2337 77.1723C79.5089 77.5353 79.3696 77.5632 78.0314 77.5632C77.0279 77.5632 76.6097 77.5353 76.554 77.4236C76.5261 77.3398 76.4424 77.284 76.3309 77.284C76.08 77.284 75.1601 76.3903 75.1601 76.139C75.1601 76.0273 75.1043 75.8876 75.0486 75.8597C74.9928 75.8318 74.9371 75.6363 74.9371 75.4967C74.9371 74.9381 74.6304 74.0166 74.3795 73.7652C73.8499 73.2346 72.8742 73.0671 72.1772 73.3742C71.7312 73.5697 71.09 74.212 71.09 74.4913C71.09 74.603 71.0343 74.6868 70.9785 74.6868C70.8391 74.6868 70.8112 76.2228 70.9785 76.53C71.0343 76.6417 71.2015 77.0047 71.3688 77.3678C71.5361 77.7029 71.7033 78.0659 71.7869 78.1497C71.9542 78.3731 73.6268 80.0487 73.8777 80.2721C74.2123 80.5514 75.634 81.1658 75.9685 81.1658C76.1358 81.1658 76.3031 81.2216 76.3588 81.2775C76.4703 81.4451 79.0629 81.4451 79.5647 81.2775C79.7877 81.2216 80.2059 81.082 80.5125 80.9982C81.1816 80.8027 83.2445 79.7694 83.2445 79.6298C83.2445 79.574 83.3281 79.5181 83.4118 79.5181C83.4954 79.5181 83.8578 79.2388 84.2202 78.9037C84.8056 78.3452 85.2238 78.1218 85.2238 78.3731C85.2238 78.5127 85.6698 79.0154 85.7813 79.0154C85.8092 79.0154 86.0601 79.2109 86.311 79.4623C86.7849 79.9091 88.0673 80.6352 88.3739 80.6352C88.4854 80.6352 88.569 80.691 88.5969 80.7469C88.7084 81.0261 90.4089 81.3054 91.8028 81.3054C93.4754 81.3054 93.9215 81.1937 95.2317 80.5793C96.6534 79.9091 97.3504 79.3785 98.1867 78.3731C98.5212 77.9821 99.1066 76.7534 99.1066 76.4741C99.1066 76.3065 99.1624 76.1669 99.2181 76.1669C99.3018 76.1669 99.3297 75.8318 99.3297 75.4408C99.3297 74.1283 98.3261 73.067 97.0716 73.067C96.5698 73.067 96.4304 73.1229 96.0123 73.5418C95.622 73.9049 95.5105 74.1283 95.4547 74.603C95.399 74.9381 95.3432 75.4408 95.2875 75.748C95.2317 76.0552 95.1481 76.3065 95.0923 76.3065C95.0366 76.3065 94.9808 76.3903 94.9808 76.4462C94.9808 76.6417 94.0887 77.284 93.81 77.284C93.6985 77.284 93.6148 77.3398 93.6148 77.3957C93.6148 77.647 91.4683 77.7867 90.632 77.5912C90.4089 77.5353 89.9629 77.3678 89.6841 77.2002C89.0708 76.8651 87.7048 75.5525 87.5933 75.1895C87.5655 75.0498 87.454 74.9381 87.3982 74.9381C87.3424 74.9381 87.2867 74.8264 87.2867 74.6868C87.2867 74.5472 87.2309 74.4355 87.1752 74.4355C87.1194 74.4355 87.0358 74.3238 87.0079 74.1562C86.98 74.0166 86.8685 73.5697 86.757 73.1788C86.5619 72.4806 86.5619 72.4806 86.8685 72.2851C87.0358 72.1734 87.3146 72.0896 87.4818 72.0896C87.6491 72.0896 87.7885 72.0338 87.7885 71.9779C87.7885 71.9221 87.9557 71.8383 88.1509 71.8103C88.346 71.7824 88.5969 71.6428 88.7084 71.5311C88.8199 71.4194 88.9872 71.3356 89.0708 71.3356C89.1823 71.3356 89.3217 71.2239 89.4054 71.0843C89.5169 70.9446 89.6284 70.8329 89.6841 70.8329C89.8235 70.8329 91.1338 69.4645 91.1338 69.297C91.1338 69.2132 91.2453 69.0177 91.3846 68.8501C91.524 68.6826 91.6355 68.4033 91.6355 68.2637C91.6355 68.124 91.6913 67.9844 91.7471 67.9844C91.8307 67.9844 91.8586 67.7051 91.8586 67.37C91.8586 66.7836 91.7192 66.3926 91.4125 66.0295C91.3289 65.9458 91.2174 65.8061 91.1616 65.6944C91.0501 65.4989 89.935 64.717 89.5169 64.5494C88.9036 64.2981 88.3181 64.1305 87.9279 64.1305C87.7049 64.1305 87.5376 64.0747 87.5376 64.0188C87.5376 63.935 86.6176 63.9071 85.0008 63.9071C83.3839 63.9071 82.4639 63.8233 82.4639 63.9071Z" fill="black"/>
<path d="M84.7499 147.408C90.6928 147.408 95.5105 143.444 95.5105 138.555C95.5105 133.666 90.6928 129.702 84.7499 129.702C78.807 129.702 73.9893 133.666 73.9893 138.555C73.9893 143.444 78.807 147.408 84.7499 147.408Z" fill="#E8CDB3"/>
<path d="M163.335 61.7565C163.419 61.5052 163.502 61.2259 163.558 60.9467C164.311 57.8189 163.781 54.4956 162.22 51.675C140.253 12.075 117.812 10.9021 117.812 10.9021C125.366 16.5712 132.419 27.7139 132.726 47.7932C132.503 50.2787 132.531 52.5966 132.809 54.719L133.897 51.7588C136.489 66.4203 154.777 69.2409 163.335 61.7565Z" fill="#CE8851"/>
<path d="M145.187 75.8875C143.989 80.1882 142.26 84.1258 140.086 87.7284C143.794 83.4556 145.689 79.4062 145.187 75.8875Z" fill="#CE8851"/>
<path d="M163.336 61.7568C161.468 67.7051 155.502 69.9113 146.358 69.2132C137.995 67.2304 133.814 62.1477 132.81 54.7192L132.587 55.3057C133.73 60.528 135.542 65.1917 138.971 68.515C142.818 70.5537 144.769 73.0671 145.187 75.9156C145.522 74.7426 145.801 73.5418 146.052 72.341C155.251 71.5869 161.523 70.1627 165.844 58.8524C165.148 59.9136 164.311 60.891 163.336 61.7568Z" fill="#B19AAD"/>
<path d="M135.876 92.0012C135.179 94.5984 131.305 95.9388 126.314 95.6316C123.192 98.5639 119.345 100.938 114.411 102.083C54.1961 116.158 38.2224 92.5318 29.1623 74.1002C33.8178 72.1733 37.637 67.8726 37.6649 58.7964L22.7227 71.2796L27.1273 85.4384C60.2175 123.111 119.819 121.045 140.114 87.7005C138.887 89.1247 137.465 90.549 135.876 92.0012Z" fill="#B19AAD"/>
<path d="M146.358 69.213C155.502 69.9112 161.467 67.705 163.335 61.7566C154.777 69.241 136.489 66.4204 133.897 51.731L132.81 54.6912C133.813 62.1476 137.995 67.2303 146.358 69.213Z" fill="#91483C"/>
<path d="M22.6391 69.8275C31.4483 67.2862 36.2711 63.1251 35.9644 56.8975C30.5284 66.9231 12.436 70.6374 4.90918 57.7911V60.9468C8.42171 67.5934 14.1087 70.8887 22.6391 69.8275Z" fill="#91483C"/>
<path d="M138.97 68.4869C135.541 65.1636 133.729 60.4999 132.586 55.2776L132.168 56.3947C130.217 65.1357 133.116 71.0562 138.859 76.809C135.737 81.78 132.475 89.7949 126.286 95.6037C131.304 95.9109 135.151 94.5425 135.848 91.9732C137.437 90.521 138.859 89.0968 140.085 87.6725C142.26 84.0979 143.988 80.1323 145.187 75.8316C144.797 73.0389 142.817 70.5255 138.97 68.4869Z" fill="#91483C"/>
<path d="M139.222 159.221C139.807 158.439 140.281 156.512 140.281 156.512C140.281 156.512 140.477 154.808 140.281 153.97C139.306 149.698 135.431 148.245 132.058 150.787C131.389 151.289 130.719 151.792 130.19 152.407C128.127 154.892 126.761 157.629 127.765 161.092C128.015 161.511 128.238 161.874 128.517 162.181C132.002 161.874 135.375 161.092 138.609 159.947C138.832 159.723 139.027 159.472 139.222 159.221Z" fill="#DC775F"/>
<path d="M42.0138 158.243C41.8186 156.093 40.7314 154.222 39.2818 152.49C38.7521 151.848 38.0831 151.345 37.414 150.871C34.0409 148.329 30.1659 149.781 29.1902 154.054C28.9951 154.864 29.1902 156.596 29.1902 156.596C29.1902 156.596 29.4133 157.517 29.7478 158.355C33.9294 159.025 38.0273 159.332 42.0138 158.243Z" fill="#DC775F"/>
<path d="M138.636 159.975C137.577 161.231 136.378 162.321 134.901 163.075C134.455 163.298 134.009 163.521 133.535 163.661C131.416 164.276 129.855 163.829 128.545 162.209C124.837 162.516 121.046 162.265 117.227 161.259C91.8305 177.848 89.6004 157.741 91.9142 144.14C87.5653 148.134 83.2722 148.19 78.9791 144.14L79.4252 162.684C67.3543 172.626 58.127 165.616 49.6802 154.026C47.1991 156.233 44.6344 157.573 42.0418 158.271C42.1254 159.193 42.0418 160.17 41.7351 161.204C40.2855 163.717 38.5293 164.471 35.9924 163.745C35.5185 163.605 35.0725 163.382 34.6264 163.158C32.8423 162.265 31.4763 160.868 30.2776 159.332C30.0825 159.081 29.9152 158.746 29.7758 158.383C27.0996 157.936 24.3955 157.294 21.6914 156.791C30.0825 176.591 55.1441 167.794 55.1441 167.794C73.097 178.239 78.1707 168.241 78.1707 168.241H90.2137C96.96 178.127 117.924 166.035 117.924 166.035C141.173 174.971 146.052 156.763 146.052 156.763C143.682 157.964 141.201 159.081 138.636 159.975Z" fill="#B19AAD"/>
<path d="M133.507 163.633C133.981 163.493 134.427 163.27 134.873 163.047C136.35 162.293 137.549 161.203 138.608 159.947C135.374 161.064 131.973 161.874 128.517 162.181C129.827 163.801 131.388 164.247 133.507 163.633Z" fill="#91483C"/>
<path d="M34.626 163.102C35.0721 163.326 35.5181 163.549 35.992 163.689C38.5288 164.415 40.2851 163.661 41.7347 161.148C42.0414 160.114 42.125 159.137 42.0414 158.215C38.0549 159.304 33.9291 158.997 29.7754 158.299C29.9148 158.662 30.082 159.025 30.2772 159.249C31.4759 160.84 32.8419 162.209 34.626 163.102Z" fill="#91483C"/>
<path d="M49.6799 105.993C49.6799 105.993 85.1398 125.15 120.181 104.736L122.133 108.562C98.7996 124.089 73.7101 124.983 46.8086 110.237L49.6799 105.993Z" fill="#B19AAD"/>
<path d="M132.698 131.266L150.874 125.876L147.724 136.963L132.698 131.266Z" fill="#91483C"/>
<path d="M136.964 95.0452C133.172 99.1225 128.991 102.613 124.196 105.322C123.527 105.713 123.666 106.076 123.945 106.607C125.478 109.539 126.984 112.499 128.489 115.46C129.242 116.968 129.911 118.504 130.691 120.151C131.751 118.615 132.197 117.023 132.503 115.348C132.894 113.142 132.698 110.908 132.726 108.701C132.754 107.668 132.921 106.635 133.423 105.741C134.51 103.702 136.768 102.865 139.11 103.423C144.017 104.596 147.306 107.891 149.815 111.997C153.885 118.615 154.638 125.765 152.631 133.221C152.073 135.343 151.125 137.326 149.703 139.058C149.397 139.449 149.313 139.784 149.48 140.231C151.181 144.894 151.125 149.53 149.536 154.25C147.278 160.952 143.236 166.174 136.991 169.498C133.033 171.62 128.656 172.29 124.168 171.76C120.739 171.341 117.282 170.894 113.993 169.637C113.463 169.442 113.184 169.749 112.85 170.028C110.369 172.179 107.414 173.491 104.236 174.106C101.03 174.72 97.7961 174.664 94.618 173.631C93.0569 173.128 91.6631 172.29 90.4643 171.173C90.0462 170.754 89.6559 170.587 89.0705 170.866C88.4014 171.173 87.6766 171.257 86.9239 171.229C84.5265 171.201 82.1012 171.425 79.7316 170.81C79.4528 170.726 79.2298 170.838 79.0068 171.034C76.7487 173.296 73.8774 174.134 70.8388 174.413C66.3784 174.832 62.1689 173.882 58.2383 171.676C57.5413 171.285 56.8723 170.838 56.3705 170.224C55.8687 169.637 55.339 169.637 54.6142 169.889C48.76 171.871 42.7385 172.709 36.6613 171.117C29.9707 169.358 24.9807 165.309 21.5239 159.277C20.5204 157.517 20.0743 155.618 19.5725 153.691C19.0707 151.653 18.5411 149.642 18.6805 147.547C18.8756 144.084 19.7398 140.789 21.9142 137.968C23.8377 135.483 26.3746 134.003 29.2459 132.97C30.361 132.579 31.4761 132.495 32.6469 132.495C34.6541 132.523 35.3232 131.936 35.9643 130.065C36.9958 127.049 38.2224 124.089 39.1981 121.045C40.1459 118.168 41.4562 115.432 42.7106 112.667C43.3797 111.159 44.2718 109.763 45.0244 108.31C45.2196 107.947 45.359 107.528 45.4705 107.11C45.6935 106.3 45.5262 105.657 44.7178 105.183C39.6999 102.25 35.3232 98.5361 31.6712 93.984C28.9114 90.549 26.6533 86.8906 25.2874 82.6458C24.6462 80.6351 23.9493 78.6802 23.7262 76.5857C23.6426 75.8317 23.1408 75.1335 22.8063 74.4074C22.639 74.0444 22.2487 74.0723 21.9142 74.1002C18.2902 74.6029 15.0564 73.3741 11.962 71.7544C7.02777 69.1851 3.73825 65.1358 1.92623 59.9414C1.25718 58.0145 0.699635 56.0038 0.699635 53.8813C0.699635 52.9318 0.392986 51.9823 0.365109 51.0328C0.309354 48.7428 0.75539 46.5087 1.08992 44.2746C1.98199 37.9352 5.82905 33.5228 10.7354 30.004C17.0636 25.452 22.5275 20.0063 27.9915 14.5047C30.5283 11.9355 33.3996 9.72929 36.8564 8.47259C39.895 7.38345 43.073 7.07625 46.3068 7.24381C48.1467 7.35552 49.9866 7.4393 51.7986 7.74649C52.4955 7.8582 53.0531 8.2771 53.7779 8.33295C55.4227 8.47259 56.7329 7.63479 58.0431 6.96455C61.1096 5.40065 64.3155 4.14396 67.605 3.22238C70.0303 2.55214 72.4835 1.90982 74.9646 1.40714C79.7595 0.401783 84.6101 0.150443 89.4608 0.457637C91.7188 0.59727 94.0326 0.876536 96.2907 1.37922C98.047 1.77019 99.7475 2.3008 101.532 2.58006C102.563 2.74762 103.539 3.22238 104.487 3.61335C106.828 4.59078 109.226 5.40065 111.428 6.68528C111.902 6.96455 112.459 7.16003 112.906 7.49515C114.411 8.64015 116 8.38881 117.7 7.99783C119.122 7.69064 120.572 7.38345 122.049 7.18796C124.307 6.93662 126.537 7.04833 128.74 7.27174C131.249 7.55101 133.59 8.50051 135.765 9.75721C138.72 11.4607 141.201 13.7507 143.57 16.1524C148.7 21.3747 154.554 25.7033 160.269 30.1995C163.558 32.7688 166.151 35.9245 167.74 39.8342C168.688 42.1801 169.106 44.6655 169.357 47.1789C169.775 51.8427 169.106 56.3668 167.238 60.6675C165.566 64.5214 163.168 67.8167 159.739 70.2743C156.729 72.4246 153.355 73.7372 149.648 74.1561C149.118 74.2119 148.588 74.184 148.059 74.1282C146.693 73.9606 146.665 73.9606 146.386 75.329C145.187 81.3332 142.846 86.8348 139.333 91.8337C138.692 93.0066 137.828 93.984 136.964 95.0452ZM130.691 54.2444C130.496 49.5806 130.412 44.9169 129.911 40.2531C129.437 35.729 128.517 31.3445 126.51 27.2672C125.144 24.5025 123.666 21.7657 121.575 19.4757C117.115 14.5885 111.595 11.2373 105.685 8.47259C104.961 8.13747 104.431 7.49515 103.567 7.4393C102.117 7.32759 100.807 6.74113 99.3851 6.51772C97.3221 6.1826 95.315 5.40065 93.1963 5.09346C89.2656 4.56285 85.3071 4.36737 81.3206 4.56286C76.8881 4.78627 72.5672 5.62407 68.3577 6.82491C63.4513 8.22125 58.8516 10.3716 54.5027 13.1643C48.76 16.8227 44.4669 21.5981 42.1252 28.0771C40.2296 33.3273 39.0308 38.6613 38.9751 44.2466C38.9193 48.1564 39.1423 52.0661 38.6406 55.9758C38.2782 58.8802 37.5533 61.5891 36.0201 64.1304C33.9851 67.5095 31.5597 70.4698 27.8799 72.1454C27.0994 72.5084 26.9321 72.9832 27.1273 73.7093C27.3782 74.6867 27.629 75.6362 27.8521 76.5857C28.4932 79.4063 29.3574 82.1431 30.6119 84.7403C33.3439 90.2977 37.6927 94.4588 42.404 98.2568C46.3347 101.44 50.7114 103.982 55.4784 105.825C61.1375 108.031 66.936 109.595 72.9574 110.433C78.7559 111.243 84.5544 111.41 90.3807 111.019C96.5416 110.6 102.563 109.455 108.473 107.64C114.885 105.657 120.767 102.613 126.231 98.7315C134.845 92.5877 140.588 84.5727 142.149 73.8768C142.288 72.9552 142.121 72.4805 141.201 72.0895C139.612 71.4193 138.134 70.4977 136.936 69.241C132.949 65.1358 130.914 60.1648 130.691 54.2444ZM78.0869 162.265C78.1705 160.924 78.0032 159.612 77.7523 158.299C77.0554 154.389 75.6615 150.647 74.881 146.737C74.3792 144.168 73.6822 141.655 73.4314 139.03C73.3198 137.829 73.9053 137.019 74.9925 136.712C76.0797 136.405 76.9439 136.851 77.4457 138.024C77.7244 138.723 77.9475 139.477 78.0869 140.203C78.9789 144.615 80.1219 148.972 81.1812 153.328C82.2127 157.545 83.495 161.79 82.0733 166.23C83.6065 166.649 85.1119 166.565 86.6173 166.537C87.2585 166.51 87.3979 166.174 87.147 165.616C86.8403 164.946 86.7567 164.22 86.7567 163.493C86.7567 159.193 87.7045 155.004 88.6244 150.843C89.2656 147.994 90.0462 145.201 90.5759 142.325C90.8546 140.817 91.0498 139.309 91.6631 137.885C92.2764 136.46 93.1963 136.209 94.4787 137.075C95.9004 138.024 95.538 139.449 95.2871 140.677C94.6459 144.168 93.9769 147.631 93.1127 151.066C92.0812 155.227 90.9661 159.388 91.5516 163.801C91.8303 165.895 92.7224 167.403 94.5902 168.353C98.9669 170.587 103.26 170 107.469 167.962C112.32 165.588 114.941 161.371 116.111 156.316C117.477 150.368 118.509 144.364 118.369 138.22C118.342 136.768 119.066 136.014 120.404 135.93C121.408 135.874 122.272 136.656 122.384 137.885C122.551 139.7 122.69 141.515 122.551 143.33C122.384 145.704 122.105 148.078 121.826 150.452C121.352 154.529 120.516 158.467 118.676 162.181C118.119 163.298 117.366 164.303 116.864 165.42C117.143 165.839 117.533 165.839 117.868 165.923C120.795 166.789 123.778 166.901 126.816 166.956C130.886 167.04 134.538 165.951 137.8 163.577C139.751 162.153 141.452 160.449 142.818 158.411C143.18 157.88 143.766 156.847 143.766 156.847C143.766 156.847 144.323 155.897 144.574 155.395C146.302 151.904 146.804 148.19 146.135 144.364C145.215 139.113 140.699 135.818 135.486 136.153C132.615 136.349 129.883 137.047 127.43 138.667C126.788 139.086 126.091 139.393 125.367 139.644C124.224 140.063 123.722 139.672 123.722 138.471C123.722 137.438 124.056 136.544 124.921 135.846C126.259 134.757 127.653 133.724 129.297 133.165C129.911 132.97 130.05 132.635 129.939 131.964C129.186 128.166 127.848 124.592 126.175 121.101C124.279 117.191 122.356 113.337 120.154 109.623C119.234 108.087 119.345 108.087 117.728 108.841C113.017 110.991 108.194 112.779 103.093 113.756C97.4615 114.817 91.8303 115.683 86.0876 115.683C79.0626 115.683 72.0932 115.376 65.2076 113.672C60.1897 112.416 55.2554 110.935 50.6278 108.618C50.1539 108.366 49.7357 108.143 49.3733 108.785C48.9273 109.623 48.4534 110.461 47.9794 111.299L46.9201 112.89C46.0001 114.734 44.8293 116.353 44.1603 118.224C43.1845 120.905 41.9858 123.475 41.1495 126.211C40.592 128.055 39.9787 129.87 39.3654 131.685C39.1702 132.299 39.2539 132.662 39.9229 132.886C41.4283 133.361 42.7106 134.226 43.9651 135.176C45.6935 136.516 45.7214 136.628 44.9408 138.639C44.3833 140.091 43.7421 140.314 42.5155 139.281C40.3689 137.494 37.9715 136.377 35.1559 136.153C33.0372 135.986 30.9464 136.069 28.995 136.824C24.6462 138.555 23.0014 141.794 22.6948 146.207C22.5275 148.636 22.8899 151.01 23.6705 153.328C24.5347 156.009 25.4546 157.098 25.4546 157.098C25.4546 157.489 26.2073 158.411 26.3746 158.662C30.2774 164.192 35.5462 167.208 42.3761 167.347C44.5227 167.403 46.6692 167.096 48.7879 166.817C50.0424 166.649 51.3526 166.621 52.4398 165.951C52.4677 165.56 52.2725 165.365 52.1331 165.141C50.2096 162.321 48.983 159.165 48.0909 155.897C47.3661 153.272 46.9759 150.591 46.6971 147.882C46.3347 144.503 46.3626 141.124 46.8643 137.773C47.0316 136.628 48.0073 135.79 49.0388 135.846C49.9308 135.902 50.7393 136.684 50.7114 137.633C50.5999 141.99 51.1574 146.291 51.715 150.591C52.3004 155.06 53.6106 159.193 56.0638 163.047C59.4091 168.325 66.239 171.006 72.3163 169.637C74.2955 169.19 76.2748 168.464 77.2784 166.37C77.8917 165.169 77.836 163.773 78.0869 162.265ZM136.824 15.7056C136.573 15.538 136.322 15.3705 136.099 15.2029C131.862 11.7679 126.956 10.6229 121.603 10.986C120.795 11.0418 119.986 11.1535 119.178 11.4607C120.795 12.4661 122.802 14.2534 122.802 14.2534C122.802 14.2534 123.443 15.0912 123.833 15.4543C124.224 15.8173 124.614 16.1803 124.976 16.5434C128.489 20.0621 130.552 24.4746 132.336 29.0266C134.761 35.2542 134.901 41.817 135.04 48.3798C135.096 51.0049 134.761 53.6021 135.152 56.2272C135.932 61.3936 138.441 65.443 143.041 67.9564C145.689 69.4086 148.561 69.3806 151.543 68.9059C158.68 67.7329 163.865 61.5891 164.841 55.2218C165.064 53.8255 164.813 52.4291 164.952 51.0887C165.398 46.9276 164.478 43.0458 162.639 39.3595C161.05 36.1479 158.318 33.9976 155.502 31.9031C150.874 28.4401 146.163 25.061 142.177 20.7882C140.56 19.0009 138.831 17.3253 136.824 15.7056ZM34.0408 47.1231C34.3196 42.4035 34.682 37.6839 35.9086 33.076C37.6927 26.3177 40.7871 20.2856 45.4984 15.1471C45.7214 14.8957 47.4498 13.4994 47.4498 13.4994C47.4498 13.4994 48.8994 12.4382 49.6521 11.7679C49.4012 11.2932 49.0666 11.2653 48.7321 11.2094C45.7214 10.7346 42.7106 10.9022 39.7835 11.6562C35.0165 12.8571 31.3925 15.929 28.2702 19.4478C23.3917 24.8935 17.9556 29.5851 11.962 33.7183C9.73186 35.2542 7.7247 37.1253 6.55385 39.6667C5.74541 41.426 5.2715 43.2692 4.96485 45.1682C4.35155 49.05 4.43519 52.9039 5.24363 56.7299C6.21933 61.3936 9.14644 64.5772 13.105 66.9789C19.2659 70.7211 26.4024 69.6878 31.0301 64.0466C33.2881 61.2819 34.0687 58.0145 34.0408 54.4957C33.9851 52.094 33.7899 49.6923 34.0408 47.1231ZM137.131 110.991C137.103 112.136 137.103 113.309 137.019 114.454C136.88 116.242 135.848 120.179 135.848 120.179C135.876 120.319 135.96 120.012 135.848 120.179C134.901 121.548 133.981 122.916 133.005 124.257C132.615 124.787 132.615 125.234 132.893 125.792C133.618 127.301 134.092 128.892 134.455 130.484C134.706 131.49 135.124 131.769 136.072 131.685C139.668 131.434 142.734 132.718 145.438 135.008C145.745 135.288 146.024 135.651 146.498 135.706C146.86 135.539 146.999 135.204 147.195 134.897C148.477 132.97 148.839 130.708 149.007 128.557C149.369 124.061 148.839 119.649 146.748 115.515C145.438 112.946 143.766 110.74 141.396 109.12C140.448 108.45 139.445 107.891 138.246 107.78C137.27 107.668 136.88 108.031 136.936 109.009C136.991 109.623 137.075 110.209 137.131 110.991Z" fill="black"/>
<path d="M112.933 58.6288C116.059 58.6288 118.593 56.0906 118.593 52.9596C118.593 49.8287 116.059 47.2905 112.933 47.2905C109.808 47.2905 107.274 49.8287 107.274 52.9596C107.274 56.0906 109.808 58.6288 112.933 58.6288Z" fill="white"/>
<path d="M56.0914 44.9169C55.9799 44.9728 55.6454 45.0286 55.3109 45.0286C54.9763 45.0286 54.7254 45.0845 54.7254 45.1404C54.7254 45.1962 54.5024 45.2521 54.2237 45.2521C53.9449 45.2521 53.7219 45.3079 53.7219 45.3638C53.7219 45.4196 53.5546 45.4755 53.3595 45.4755C53.1364 45.4755 52.9413 45.5313 52.9134 45.5872C52.8856 45.643 52.7183 45.6989 52.5789 45.6989C52.4674 45.6989 52.3559 45.7547 52.3559 45.8106C52.3559 45.8664 52.2723 45.9223 52.1607 45.9223C51.9099 45.9223 51.0735 46.3691 50.2093 46.9277C49.2336 47.57 47.4495 49.3573 46.7247 50.4185C46.0556 51.368 45.3866 52.6247 45.3866 52.9319C45.3866 53.0436 45.3308 53.1274 45.2751 53.1274C45.2193 53.1274 45.1636 53.2949 45.1636 53.4904C45.1636 53.6859 45.1078 53.8535 45.052 53.8535C44.9963 53.8535 44.9405 54.049 44.9405 54.3003C44.9405 54.5237 44.8848 54.7471 44.829 54.7471C44.7733 54.7471 44.7175 54.9426 44.7175 55.1939C44.7175 55.4453 44.6618 55.6408 44.606 55.6408C44.5503 55.6408 44.4945 55.948 44.4945 56.311C44.4945 56.6741 44.4388 56.9813 44.383 56.9813C44.2994 56.9813 44.2715 57.7911 44.2715 59.1595C44.2715 60.5279 44.3272 61.3378 44.383 61.3378C44.4666 61.3378 44.4945 61.5892 44.4945 61.8963C44.4945 62.2035 44.5503 62.4549 44.606 62.4549C44.6896 62.4549 44.7175 62.5666 44.7175 62.7341C44.7175 63.4323 45.749 65.6664 46.4459 66.5042C46.5017 66.5601 46.6132 66.7556 46.6968 66.9231C46.9198 67.3141 47.9792 68.3753 48.8712 69.0456C49.6518 69.66 51.4359 70.6374 51.7426 70.6374C51.8541 70.6374 51.9098 70.6932 51.9098 70.7491C51.9098 70.805 52.0771 70.8608 52.2723 70.8608C52.4953 70.8608 52.6347 70.9167 52.6347 70.9725C52.6347 71.0284 52.8298 71.0842 53.0807 71.0842C53.3037 71.0842 53.5267 71.1401 53.5267 71.1959C53.5267 71.3914 54.4467 71.5031 57.095 71.531C58.8234 71.559 59.7991 71.531 59.8827 71.4473C59.9385 71.3914 60.2451 71.3356 60.5518 71.3356C60.8584 71.3356 61.0815 71.2797 61.0815 71.2239C61.0815 71.1401 61.2487 71.1121 61.4439 71.1121C61.6669 71.1121 61.8063 71.0563 61.8063 71.0004C61.8063 70.9167 61.9457 70.8887 62.1129 70.8887C62.2802 70.8887 62.4196 70.8329 62.4196 70.777C62.4196 70.6932 62.5311 70.6653 62.6705 70.6653C62.8098 70.6653 62.9214 70.6095 62.9214 70.5536C62.9214 70.4698 63.0329 70.4419 63.1723 70.4419C63.3116 70.4419 63.4232 70.3861 63.4232 70.3302C63.4232 70.2464 63.5347 70.2185 63.674 70.2185C63.8134 70.2185 63.9249 70.1626 63.9249 70.1068C63.9249 70.0509 64.0643 69.9392 64.2595 69.8554C64.9285 69.5482 67.0193 67.6492 67.0193 67.342C67.0193 67.2583 67.1866 67.0628 67.3538 66.8952C67.772 66.5042 68.5247 65.2475 68.7477 64.5494C68.8592 64.298 68.9428 64.0467 68.9707 63.9908C68.9986 63.9629 69.1101 63.6837 69.1937 63.3765C69.2774 63.0693 69.4168 62.7062 69.4725 62.5945C69.5283 62.4828 69.584 62.2035 69.584 62.0081C69.584 61.7846 69.6398 61.5892 69.6955 61.5612C69.7792 61.5333 69.807 61.1144 69.807 60.6676C69.807 60.2207 69.8628 59.8856 69.9185 59.8856C70.0022 59.8856 70.0301 59.3271 70.0301 58.4614C70.0301 57.5956 69.9743 57.0371 69.9185 57.0371C69.8349 57.0371 69.807 56.702 69.807 56.2831C69.807 55.8642 69.7513 55.5291 69.6955 55.5291C69.6398 55.5291 69.584 55.3336 69.584 55.1102C69.584 54.8868 69.5283 54.6354 69.4725 54.6075C69.4168 54.5796 69.361 54.412 69.361 54.2724C69.361 54.1607 69.3052 53.9373 69.2495 53.7976C69.1937 53.658 69.0822 53.4346 68.9986 53.2949C68.9428 53.1553 68.8871 52.9598 68.8871 52.8481C68.8871 52.7364 68.8313 52.6526 68.7756 52.6526C68.7198 52.6526 68.6641 52.5409 68.6641 52.4013C68.6641 52.2617 68.6362 52.1499 68.5804 52.1499C68.5247 52.1499 68.3295 51.8428 68.1344 51.4797C67.9393 51.1167 67.7441 50.8095 67.6884 50.8095C67.6326 50.8095 67.5769 50.7536 67.5769 50.6978C67.5769 50.5861 67.326 50.223 66.8799 49.7483C66.7127 49.5807 66.6012 49.4131 66.6012 49.3294C66.6012 48.9942 63.5347 46.4808 63.1723 46.4808C63.0886 46.4808 63.005 46.425 63.005 46.3691C63.005 46.3133 62.8377 46.2016 62.6426 46.1178C62.4474 46.034 62.2802 45.9223 62.2802 45.8664C62.2802 45.8106 62.1129 45.7547 61.9178 45.7547C61.7226 45.7547 61.5554 45.6989 61.5554 45.643C61.5554 45.5593 61.416 45.5313 61.2487 45.5313C61.0815 45.5313 60.9421 45.4755 60.9421 45.4196C60.9421 45.3358 60.7469 45.3079 60.496 45.3079C60.273 45.3079 60.05 45.2521 60.05 45.1962C59.9385 44.9728 56.3702 44.7215 56.0914 44.9169ZM58.5725 48.7708C58.5725 48.8267 58.7398 48.8825 58.9349 48.8825C59.1579 48.8825 59.2973 48.9384 59.2973 48.9942C59.2973 49.0501 59.4367 49.1059 59.604 49.1059C59.7712 49.1059 59.9106 49.1618 59.9106 49.2176C59.9106 49.2735 59.9664 49.3294 60.05 49.3294C60.3009 49.3294 61.5833 50.7536 61.8341 51.3121C62.3359 52.3454 62.3917 52.5688 62.3917 53.5463C62.3917 54.412 62.3359 54.6075 62.0014 55.2498C61.6669 55.8921 60.9978 56.6461 60.1615 57.3164C59.1022 58.21 56.7605 58.2659 55.1994 57.4281C53.8613 56.7578 52.4953 54.3841 52.6625 53.0995C52.7462 52.4292 52.9134 51.8148 53.1922 51.2842C53.4431 50.7257 54.4188 49.7203 54.8927 49.469C55.0879 49.3573 55.2272 49.2456 55.2272 49.1897C55.2272 49.1339 55.3945 49.078 55.5896 49.078C55.8127 49.078 55.952 49.0222 55.952 48.9663C55.952 48.8825 56.1472 48.8546 56.3981 48.8546C56.6211 48.8546 56.8441 48.7987 56.8441 48.7429C56.8441 48.6591 57.2065 48.6312 57.7083 48.6312C58.2101 48.6312 58.5725 48.687 58.5725 48.7708Z" fill="black"/>
<path d="M110.926 44.9169C110.815 44.9728 110.536 45.0286 110.285 45.0286C110.034 45.0286 109.811 45.0845 109.811 45.1404C109.811 45.1962 109.644 45.2521 109.449 45.2521C109.254 45.2521 109.087 45.3079 109.087 45.3638C109.087 45.4196 108.947 45.4755 108.78 45.4755C108.613 45.4755 108.473 45.5313 108.473 45.5872C108.473 45.643 108.39 45.6989 108.306 45.6989C108.083 45.6989 107.47 46.0061 107.47 46.0899C107.47 46.1457 107.358 46.2016 107.219 46.2016C107.079 46.2016 106.968 46.2574 106.968 46.3133C106.968 46.3691 106.856 46.425 106.717 46.425C106.578 46.425 106.466 46.4808 106.466 46.5367C106.466 46.5925 106.327 46.7322 106.132 46.816C105.936 46.9277 105.769 47.0114 105.713 47.0394C105.686 47.0673 105.435 47.2628 105.156 47.4862C104.57 47.933 102.731 49.7483 102.731 49.8879C102.731 49.9437 102.619 50.1113 102.48 50.2789C102.117 50.7257 101.253 52.2058 101.253 52.4292C101.253 52.5409 101.197 52.6247 101.142 52.6247C101.086 52.6247 101.03 52.7364 101.03 52.8481C101.03 52.9877 100.974 53.1274 100.919 53.1832C100.863 53.2112 100.807 53.4066 100.807 53.6301C100.807 53.8255 100.751 54.021 100.696 54.0769C100.64 54.1048 100.584 54.3003 100.584 54.4958C100.584 54.6913 100.528 54.8868 100.473 54.9426C100.222 55.2219 99.9707 60.0811 100.194 60.0811C100.277 60.0811 100.333 60.4162 100.333 60.9468C100.333 61.4216 100.389 61.8405 100.445 61.8963C100.528 61.9243 100.556 62.2035 100.556 62.4549C100.556 62.7062 100.612 62.9296 100.668 62.9296C100.751 62.9296 100.779 63.0972 100.779 63.2927C100.779 63.4882 100.835 63.6557 100.891 63.6557C100.974 63.6557 101.002 63.7395 101.002 63.8512C101.002 64.1305 102.006 66.0016 102.34 66.3367C102.508 66.5042 102.619 66.6718 102.619 66.7556C102.619 67.0069 105.044 69.2969 105.63 69.6041C105.964 69.7717 106.215 69.9392 106.215 70.023C106.215 70.0789 106.327 70.1347 106.438 70.1347C106.55 70.1347 106.745 70.2464 106.829 70.3861C106.94 70.5257 107.107 70.6374 107.219 70.6374C107.33 70.6374 107.442 70.6932 107.442 70.7491C107.442 70.8049 107.553 70.8608 107.693 70.8608C107.832 70.8608 107.944 70.9167 107.944 70.9725C107.944 71.0284 108.083 71.0842 108.25 71.0842C108.418 71.0842 108.557 71.1401 108.557 71.1959C108.557 71.2518 108.696 71.3076 108.864 71.3076C109.031 71.3076 109.198 71.3635 109.226 71.4193C109.477 71.8103 113.519 72.0617 115.192 71.7824C115.61 71.6986 116.167 71.6427 116.474 71.5869C116.753 71.531 117.004 71.4752 117.004 71.3914C117.004 71.3356 117.171 71.2797 117.366 71.2797C117.589 71.2797 117.729 71.2239 117.729 71.168C117.729 71.0842 117.84 71.0563 117.979 71.0563C118.119 71.0563 118.23 71.0004 118.23 70.9446C118.23 70.8608 118.37 70.8329 118.537 70.8329C118.704 70.8329 118.844 70.777 118.844 70.7212C118.844 70.6374 118.927 70.6095 119.011 70.6095C119.234 70.6095 119.847 70.3023 119.847 70.1906C119.847 70.1347 119.931 70.1068 120.042 70.1068C120.154 70.1068 120.237 70.0509 120.237 69.9951C120.237 69.9113 120.293 69.8834 120.349 69.8834C120.516 69.8834 120.795 69.632 121.994 68.4312C123.22 67.2024 123.416 66.979 123.583 66.588C123.666 66.4205 123.75 66.2808 123.806 66.2808C123.862 66.2808 124.029 66.0295 124.196 65.6944C124.363 65.3592 124.531 65.08 124.586 65.08C124.642 65.0521 124.67 64.9683 124.67 64.8566C124.67 64.7449 124.726 64.689 124.781 64.689C124.865 64.689 124.893 64.5215 124.893 64.326C124.893 64.1026 124.949 63.9629 125.004 63.9629C125.088 63.9629 125.116 63.7954 125.116 63.5999C125.116 63.3765 125.172 63.2368 125.228 63.2368C125.311 63.2368 125.339 63.0413 125.339 62.79C125.339 62.5666 125.395 62.3432 125.451 62.3432C125.646 62.3432 125.729 61.1144 125.729 58.6289C125.729 56.1714 125.646 55.0264 125.451 55.0264C125.395 55.0264 125.339 54.8588 125.339 54.6633C125.339 54.4399 125.283 54.3003 125.228 54.3003C125.172 54.3003 125.116 54.1327 125.116 53.9373C125.116 53.7138 125.06 53.5742 125.004 53.5742C124.949 53.5742 124.893 53.4346 124.893 53.267C124.893 53.0994 124.837 52.9598 124.781 52.9598C124.726 52.9598 124.67 52.8481 124.67 52.7085C124.67 52.5688 124.614 52.4571 124.558 52.4571C124.503 52.4571 124.447 52.4013 124.447 52.3454C124.447 52.2337 123.443 50.6419 123.137 50.2789C123.081 50.1951 122.886 49.9437 122.691 49.7483C121.91 48.7708 120.405 47.3466 119.903 47.1231C119.736 47.0394 119.596 46.9277 119.596 46.8718C119.596 46.816 119.513 46.7601 119.401 46.7601C119.29 46.7601 119.206 46.7042 119.206 46.6484C119.206 46.5646 119.095 46.5367 118.955 46.5367C118.816 46.5367 118.704 46.5088 118.704 46.425C118.704 46.3133 118.091 46.034 117.868 46.034C117.784 46.034 117.701 45.9782 117.701 45.9223C117.701 45.8385 117.589 45.8106 117.45 45.8106C117.31 45.8106 117.199 45.7547 117.199 45.6989C117.199 45.6151 117.059 45.5872 116.892 45.5872C116.725 45.5872 116.586 45.5313 116.586 45.4755C116.586 45.3917 116.418 45.3638 116.223 45.3638C116.028 45.3638 115.861 45.3079 115.861 45.2521C115.861 45.0845 114.941 44.9728 112.962 44.9169C111.846 44.8052 111.038 44.8332 110.926 44.9169ZM113.408 48.7708C113.408 48.8267 113.631 48.8825 113.909 48.8825C114.188 48.8825 114.411 48.9384 114.411 48.9942C114.411 49.0501 114.551 49.1059 114.718 49.1059C114.885 49.1059 115.024 49.1618 115.024 49.2176C115.024 49.2735 115.08 49.3294 115.164 49.3294C115.61 49.3294 116.753 51.0329 117.115 52.2617C117.478 53.4625 116.809 55.7246 115.889 56.4786C115.721 56.6182 115.387 56.8975 115.192 57.1209C114.495 57.7911 113.854 58.0425 112.599 58.1262C111.679 58.1821 111.373 58.1542 111.066 57.9866C110.843 57.8749 110.592 57.7911 110.48 57.7911C110.397 57.7911 110.313 57.7353 110.313 57.6794C110.313 57.6236 110.202 57.5119 110.062 57.4839C109.923 57.4281 109.588 57.1488 109.282 56.8695C108.585 56.1435 108.473 56.0038 108.306 55.6408C108.222 55.4732 108.111 55.3336 108.055 55.3336C107.999 55.3336 107.944 55.1939 107.944 55.0264C107.944 54.8588 107.888 54.6913 107.832 54.6354C107.748 54.6075 107.721 54.049 107.721 53.4066C107.721 52.7643 107.776 52.2058 107.832 52.1779C107.916 52.1499 107.944 51.9824 107.944 51.8428C107.944 51.5356 108.613 50.5302 109.031 50.1951C109.198 50.0554 109.477 49.832 109.616 49.6645C109.784 49.4969 109.979 49.3852 110.09 49.3852C110.202 49.3852 110.285 49.3294 110.285 49.2735C110.285 49.1897 110.453 49.1618 110.648 49.1618C110.871 49.1618 111.01 49.1059 111.01 49.0501C111.01 48.9663 111.233 48.9384 111.512 48.9384C111.791 48.9384 112.014 48.8825 112.014 48.8267C112.014 48.7429 112.32 48.715 112.683 48.715C113.101 48.6312 113.408 48.687 113.408 48.7708Z" fill="black"/>
<path d="M123 78.3333C123 80.9397 120.958 83 118.5 83C116.042 83 114 80.9397 114 78.3333C114 77.7309 114.224 76.7664 114.647 75.5767C115.059 74.4161 115.625 73.1369 116.23 71.9448C116.835 70.7506 117.465 69.6698 117.998 68.9005C118.189 68.6256 118.358 68.4044 118.5 68.2373C118.642 68.4044 118.811 68.6256 119.002 68.9005C119.535 69.6698 120.165 70.7506 120.77 71.9448C121.375 73.1369 121.941 74.4161 122.353 75.5767C122.776 76.7664 123 77.7309 123 78.3333ZM118.806 67.9288C118.813 67.924 118.812 67.9256 118.803 67.9309C118.804 67.93 118.805 67.9293 118.806 67.9288ZM118.197 67.9309C118.188 67.9256 118.187 67.924 118.194 67.9288C118.195 67.9293 118.196 67.93 118.197 67.9309Z" fill="#5DADEC" stroke="black" stroke-width="2"/>
</svg>
