<svg width="204" height="274" viewBox="0 0 204 274" fill="none" xmlns="http://www.w3.org/2000/svg">
<g filter="url(#filter0_d_394_614)">
<path d="M95.4502 1.33165C58.1134 3.86296 26.5871 24.7462 11.1116 57.193C5.41616 69.1592 2.53967 80.8952 2.07944 94.4723C1.44661 111.789 4.55321 125.826 12.895 143.257C19.9712 158.1 29.291 173.863 43.7885 195.552C60.242 220.175 94.7598 268.039 97.1185 269.478C98.154 270.11 99.9375 270.513 101.548 270.513C103.734 270.513 104.655 270.226 105.978 268.96C107.646 267.349 135.836 228.689 150.103 208.381C175.762 171.907 191.812 144.235 197.508 126.804C201.247 115.413 202.283 107.819 201.938 94.7599C201.708 86.7633 201.305 82.391 200.442 78.479C191.985 40.3368 161.494 10.7665 122.719 3.05754C117.081 1.96448 113.457 1.50424 105.46 1.044C103.734 0.928944 99.2471 1.044 95.4502 1.33165ZM116.909 25.7243C137.217 29.7513 155.799 42.1202 167.075 58.9189C173.288 68.2962 176.855 76.7531 179.156 87.7413C180.767 95.3352 180.939 108.912 179.501 116.679C173.863 147.687 150.449 172.425 120.13 179.501C108.797 182.148 97.061 182.378 86.1303 180.192C70.885 177.085 57.8833 170.009 46.4924 158.618C31.7648 143.948 24.2284 126.746 23.423 105.978C22.7326 89.122 26.9323 73.9917 36.0795 59.8969C40.8545 52.5906 51.2098 42.0627 57.9983 37.5754C66.973 31.7073 78.709 26.9899 88.2014 25.4366C90.5601 25.0914 92.9188 24.6887 93.3791 24.5737C95.3926 24.0559 112.997 24.9188 116.909 25.7243Z" fill="#F15E32"/>
<path d="M97.6511 268.631C98.4819 269.134 100.058 269.513 101.548 269.513C102.614 269.513 103.255 269.44 103.761 269.266C104.244 269.1 104.683 268.815 105.284 268.24C105.285 268.239 105.286 268.238 105.287 268.237L105.298 268.226C105.307 268.217 105.318 268.204 105.333 268.187C105.363 268.154 105.401 268.11 105.449 268.055C105.543 267.944 105.664 267.797 105.811 267.612C106.106 267.244 106.497 266.742 106.974 266.119C107.928 264.874 109.219 263.157 110.768 261.074C113.865 256.909 117.989 251.294 122.508 245.093C131.546 232.69 142.156 217.954 149.285 207.806L149.285 207.806C174.944 171.331 190.913 143.768 196.557 126.493L196.558 126.492C200.258 115.221 201.28 107.743 200.938 94.7887C200.708 86.8068 200.307 82.5117 199.466 78.6955C191.096 40.9476 160.918 11.6725 122.527 4.03885C116.942 2.95621 113.363 2.50049 105.403 2.04239L105.394 2.04178C103.741 1.93161 99.3114 2.04199 95.5257 2.32883L95.5178 2.32938C58.5234 4.83743 27.327 25.5186 12.0145 57.6228C6.37851 69.4641 3.53448 81.0653 3.07887 94.5061L3.07877 94.5088C2.45249 111.646 5.51704 125.523 13.7971 142.826L13.7977 142.827C20.8447 157.609 30.1353 173.327 44.6198 194.996L44.6199 194.996C52.8373 207.294 65.5724 225.405 76.5501 240.624C82.0385 248.233 87.084 255.114 90.9029 260.181C92.8131 262.715 94.4119 264.789 95.604 266.272C96.2007 267.014 96.6889 267.599 97.0597 268.017C97.2456 268.227 97.3945 268.386 97.5079 268.498C97.6083 268.597 97.6519 268.63 97.6514 268.631C97.6514 268.631 97.6513 268.631 97.6511 268.631ZM97.6511 268.631C97.6474 268.629 97.6437 268.627 97.64 268.624L97.6391 268.624C97.646 268.628 97.6501 268.631 97.6511 268.631ZM167.908 58.3666L167.905 58.3616C156.48 41.341 137.669 28.8223 117.106 24.7439C115.055 24.3228 109.597 23.9044 104.481 23.654C101.902 23.5277 99.3768 23.4426 97.3653 23.4218C96.3605 23.4114 95.4753 23.4169 94.772 23.442C94.1086 23.4658 93.5075 23.5089 93.1339 23.6042C92.7249 23.7056 90.4262 24.1004 88.0566 24.4471L88.0483 24.4484L88.0399 24.4497C78.3948 26.028 66.5289 30.8029 57.4511 36.7384L57.4469 36.7411C53.9698 39.0395 49.6281 42.8483 45.5705 46.9782C41.5109 51.1102 37.6793 55.6211 35.2424 59.3498L35.2407 59.3525C25.982 73.619 21.7252 88.953 22.4237 106.017C23.239 127.037 30.8799 144.477 45.7857 159.325C57.31 170.85 70.4862 178.024 85.9307 181.171L85.9342 181.172C97.0103 183.387 108.891 183.153 120.358 180.475C120.358 180.475 120.358 180.475 120.358 180.475L120.13 179.501C150.449 172.425 173.863 147.687 179.501 116.679L167.908 58.3666ZM167.908 58.3666C174.19 67.8476 177.807 76.4221 180.135 87.5363C181.772 95.2589 181.946 108.964 180.485 116.858L167.908 58.3666Z" stroke="white" stroke-width="2"/>
</g>
<path d="M72.2969 56.263L72.2969 56.263L72.2957 56.265C71.579 57.5552 71.1968 58.4065 70.991 59.6486C70.7841 60.8973 70.755 62.5423 70.755 65.4212C70.755 68.1838 70.7984 69.8447 70.9912 71.1233C71.1833 72.3969 71.5241 73.2929 72.1254 74.5242C74.5026 79.3069 78.0148 81.8795 81.5653 82.1778C85.1132 82.4758 88.7338 80.5054 91.3373 76.1282L91.3376 76.1277C94.4564 70.9487 94.8587 64.4631 93.269 59.0998C91.6786 53.734 88.1053 49.52 83.2987 48.8368C81.8173 48.6661 80.2837 48.8379 79.0385 49.4038C76.3012 50.6584 74.0723 52.8839 72.2969 56.263Z" fill="#F15E32" stroke="white" stroke-width="0.2"/>
<path d="M110.335 63.6445L110.335 63.6449C109.963 68.573 111.138 73.1533 113.29 76.4987C115.441 79.8444 118.563 81.9469 122.087 81.9469C127.43 81.9469 131.489 77.3974 133.252 71.5046C135.014 65.6163 134.467 58.4306 130.636 53.2262C127.435 48.8827 121.68 47.247 117.883 49.6273C113.428 52.4259 110.794 57.226 110.335 63.6445Z" fill="#F15E32" stroke="white" stroke-width="0.2"/>
<path d="M46.5419 75.6903L46.5396 75.6915C42.7206 77.7435 39.8563 82.371 38.8241 88.0476C37.6214 94.8063 40.1447 102.418 44.7139 106.131C45.6903 106.907 46.3394 107.342 47.14 107.588C47.9437 107.835 48.9077 107.893 50.5193 107.893C52.1309 107.893 53.0949 107.835 53.8986 107.588C54.6992 107.342 55.3484 106.907 56.3248 106.131C57.5196 105.164 59.2945 102.875 60.2099 101.044L60.2102 101.044C61.0152 99.4626 61.4406 98.5247 61.6679 97.2459C61.8962 95.9619 61.9252 94.332 61.9252 91.3666C61.9252 88.5751 61.8819 86.9 61.6891 85.6432C61.4972 84.3921 61.157 83.5545 60.5565 82.4394L60.5558 82.438C58.9501 79.3414 56.7765 76.8875 54.6733 75.8075L54.6721 75.8068C53.7735 75.3294 52.1395 75.0706 50.518 75.049C49.7098 75.0383 48.9101 75.0866 48.2136 75.1944C47.515 75.3025 46.9288 75.4692 46.5419 75.6903Z" fill="#F15E32" stroke="white" stroke-width="0.2"/>
<path d="M161.529 104.365L161.529 104.365C166.05 98.414 166.796 89.0777 163.361 82.1488C161.758 78.9446 159.459 76.7496 156.912 75.7248C154.366 74.7008 151.564 74.8422 148.944 76.3232C147.638 77.0613 146.224 78.4727 145.006 80.1424C143.789 81.8108 142.774 83.7275 142.26 85.4685C141.718 87.4107 141.516 90.0453 141.631 92.6637C141.746 95.2823 142.176 97.8737 142.89 99.7296C144.952 104.997 149.524 108.755 154.015 108.755C154.502 108.755 155.115 108.616 155.79 108.369C156.464 108.122 157.194 107.771 157.913 107.352C159.352 106.515 160.735 105.415 161.529 104.365Z" fill="#F15E32" stroke="white" stroke-width="0.2"/>
<path d="M97.0289 91.1989L97.0276 91.1994C96.2102 91.4813 95.2603 91.9204 94.4007 92.4035C93.5373 92.8887 92.784 93.4076 92.3479 93.8437L92.348 93.8438L92.3432 93.8484C91.5227 94.6264 89.0898 97.466 85.8635 101.352C82.6438 105.231 78.6481 110.134 74.7114 115.023C70.7747 119.913 66.8977 124.787 63.9153 128.608C62.424 130.519 61.157 132.165 60.2183 133.418C59.2732 134.679 58.6759 135.521 58.5071 135.838C57.9387 136.918 57.5896 137.787 57.3801 138.779C57.1699 139.774 57.0979 140.904 57.0979 142.509C57.1549 148.685 60.0934 153.43 65.6441 156.149C65.6443 156.15 65.6446 156.15 65.6449 156.15L68.6864 157.614L77.1283 156.759C77.1287 156.759 77.1291 156.759 77.1295 156.759C81.7934 156.24 88.585 155.665 92.2128 155.434L92.2128 155.434L92.2168 155.434C99.4825 155.088 118.136 155.895 128.269 156.989L128.27 156.989C132.445 157.45 134.975 157.543 136.967 157.024C138.942 156.509 140.413 155.385 142.447 153.322C147.158 148.497 148.561 141.475 145.909 136.003L145.908 136.001C145.824 135.823 145.627 135.506 145.317 135.054C145.011 134.607 144.604 134.041 144.109 133.372C143.119 132.036 141.783 130.296 140.212 128.289C137.07 124.276 132.992 119.198 128.876 114.155C124.759 109.111 120.606 104.102 117.313 100.224C115.666 98.2858 114.235 96.6311 113.132 95.3971C112.581 94.7799 112.112 94.2692 111.741 93.8812C111.366 93.4903 111.1 93.2353 110.948 93.1186C108.818 91.5289 106.671 90.5854 104.398 90.2686C102.123 89.9517 99.7042 90.2598 97.0289 91.1989Z" fill="#F15E32" stroke="white" stroke-width="0.5"/>
<defs>
<filter id="filter0_d_394_614" x="0" y="0" width="204" height="273.513" filterUnits="userSpaceOnUse" color-interpolation-filters="sRGB">
<feFlood flood-opacity="0" result="BackgroundImageFix"/>
<feColorMatrix in="SourceAlpha" type="matrix" values="0 0 0 0 0 0 0 0 0 0 0 0 0 0 0 0 0 0 127 0" result="hardAlpha"/>
<feOffset dy="1"/>
<feGaussianBlur stdDeviation="1"/>
<feComposite in2="hardAlpha" operator="out"/>
<feColorMatrix type="matrix" values="0 0 0 0 0 0 0 0 0 0 0 0 0 0 0 0 0 0 0.35 0"/>
<feBlend mode="normal" in2="BackgroundImageFix" result="effect1_dropShadow_394_614"/>
<feBlend mode="normal" in="SourceGraphic" in2="effect1_dropShadow_394_614" result="shape"/>
</filter>
</defs>
</svg>
